# Blender v2.93.6 OBJ File: ''
# www.blender.org
o tali_ayunan.002_Cube.006
v 0.931501 -0.232719 -0.072233
v 0.931501 5.192518 -0.072233
v 0.924821 -0.232719 -0.178660
v 0.924821 5.192518 -0.178660
v 0.987373 -0.232719 -0.075740
v 0.987373 5.192518 -0.075740
v 0.980693 -0.232719 -0.182167
v 0.980693 5.192518 -0.182167
vt 0.625000 0.000000
vt 0.375000 0.250000
vt 0.375000 0.000000
vt 0.625000 0.250000
vt 0.375000 0.500000
vt 0.625000 0.500000
vt 0.375000 0.750000
vt 0.625000 0.750000
vt 0.375000 1.000000
vt 0.125000 0.750000
vt 0.125000 0.500000
vt 0.875000 0.500000
vt 0.625000 1.000000
vt 0.875000 0.750000
vn -0.9980 0.0000 0.0626
vn -0.0626 0.0000 -0.9980
vn 0.9980 0.0000 -0.0626
vn 0.0626 0.0000 0.9980
vn 0.0000 -1.0000 0.0000
vn 0.0000 1.0000 0.0000
s off
f 2/1/1 3/2/1 1/3/1
f 4/4/2 7/5/2 3/2/2
f 8/6/3 5/7/3 7/5/3
f 6/8/4 1/9/4 5/7/4
f 7/5/5 1/10/5 3/11/5
f 4/12/6 6/8/6 8/6/6
f 2/1/1 4/4/1 3/2/1
f 4/4/2 8/6/2 7/5/2
f 8/6/3 6/8/3 5/7/3
f 6/8/4 2/13/4 1/9/4
f 7/5/5 5/7/5 1/10/5
f 4/12/6 2/14/6 6/8/6
o tali_ayunan.003_Cube.005
v -1.064568 -0.232719 0.053067
v -1.064568 5.192518 0.053067
v -1.071248 -0.232719 -0.053360
v -1.071248 5.192518 -0.053360
v -1.008696 -0.232719 0.049560
v -1.008696 5.192518 0.049560
v -1.015376 -0.232719 -0.056867
v -1.015376 5.192518 -0.056867
vt 0.625000 0.000000
vt 0.375000 0.250000
vt 0.375000 0.000000
vt 0.625000 0.250000
vt 0.375000 0.500000
vt 0.625000 0.500000
vt 0.375000 0.750000
vt 0.625000 0.750000
vt 0.375000 1.000000
vt 0.125000 0.750000
vt 0.125000 0.500000
vt 0.875000 0.500000
vt 0.625000 1.000000
vt 0.875000 0.750000
vn -0.9980 0.0000 0.0626
vn -0.0626 0.0000 -0.9980
vn 0.9980 0.0000 -0.0626
vn 0.0626 0.0000 0.9980
vn 0.0000 -1.0000 0.0000
vn 0.0000 1.0000 -0.0000
s off
f 10/15/7 11/16/7 9/17/7
f 12/18/8 15/19/8 11/16/8
f 16/20/9 13/21/9 15/19/9
f 14/22/10 9/23/10 13/21/10
f 15/19/11 9/24/11 11/25/11
f 12/26/12 14/22/12 16/20/12
f 10/15/7 12/18/7 11/16/7
f 12/18/8 16/20/8 15/19/8
f 16/20/9 14/22/9 13/21/9
f 14/22/10 10/27/10 9/23/10
f 15/19/11 13/21/11 9/24/11
f 12/26/12 10/28/12 14/22/12
