# Blender v2.93.4 OBJ File: 'Environment_2.blend'
# www.blender.org
o Fence.005_Cube.016
v -2.560287 0.081854 1.797833
v -2.560287 0.081854 2.189831
v -2.642766 0.081854 2.189831
v -2.642765 0.081854 1.797832
v -2.560287 2.081854 1.797833
v -2.560288 2.081854 2.189832
v -2.642766 2.081854 2.189831
v -2.642766 2.081854 1.797833
v -2.560288 2.581854 1.990947
v -2.642766 2.581854 1.993822
v -2.560287 0.081854 0.797833
v -2.560287 0.081854 1.189831
v -2.642766 0.081854 1.189831
v -2.642765 0.081854 0.797832
v -2.560287 2.081854 0.797833
v -2.560288 2.081854 1.189832
v -2.642766 2.081854 1.189831
v -2.642766 2.081854 0.797833
v -2.560288 2.581854 0.990947
v -2.642766 2.581854 0.993822
v -2.560287 0.081854 -0.202167
v -2.560287 0.081854 0.189831
v -2.642766 0.081854 0.189831
v -2.642765 0.081854 -0.202168
v -2.560287 2.081854 -0.202167
v -2.560288 2.081854 0.189832
v -2.642766 2.081854 0.189831
v -2.642766 2.081854 -0.202167
v -2.560288 2.581854 -0.009053
v -2.642766 2.581854 -0.006178
v -2.560287 0.081854 -1.202167
v -2.560287 0.081854 -0.810169
v -2.642766 0.081854 -0.810169
v -2.642765 0.081854 -1.202168
v -2.560287 2.081854 -1.202167
v -2.560288 2.081854 -0.810168
v -2.642766 2.081854 -0.810169
v -2.642766 2.081854 -1.202167
v -2.560288 2.581854 -1.009053
v -2.642766 2.581854 -1.006178
v -2.560287 0.081854 -2.202167
v -2.560287 0.081854 -1.810169
v -2.642766 0.081854 -1.810169
v -2.642765 0.081854 -2.202168
v -2.560287 2.081854 -2.202167
v -2.560288 2.081854 -1.810168
v -2.642766 2.081854 -1.810169
v -2.642766 2.081854 -2.202167
v -2.560288 2.581854 -2.009053
v -2.642766 2.581854 -2.006178
vt 0.571521 -0.169678
vt 0.532478 0.015886
vt 0.532478 -0.169679
vt -0.289098 0.019365
vt -0.327529 0.269262
vt -0.328151 0.019146
vt 1.019240 -0.010311
vt 1.204804 -0.010311
vt 1.204803 0.936448
vt -0.289109 1.199299
vt -0.328152 1.199334
vt 0.864563 0.252575
vt 1.050127 0.252575
vt 1.050127 1.199334
vt -0.487418 1.199299
vt -0.525845 0.268821
vt -0.486803 0.268787
vt -0.487406 0.019296
vt 0.678999 -0.169679
vt 0.639956 0.015885
vt 0.639956 -0.169679
vt -0.328763 0.019365
vt -0.367193 0.269262
vt -0.367816 0.019146
vt 1.390368 0.041235
vt 1.575932 0.041235
vt 1.575932 0.987994
vt -0.328774 1.199299
vt -0.367816 1.199334
vt -0.063258 0.252575
vt 0.122306 0.252575
vt 0.122307 1.199334
vt -0.566732 1.199299
vt -0.605159 0.268821
vt -0.566117 0.268787
vt -0.566720 0.019296
vt 0.532478 -0.169679
vt 0.493435 0.015885
vt 0.493435 -0.169679
vt -0.249433 0.019365
vt -0.287864 0.269262
vt -0.288486 0.019146
vt 1.263194 0.128940
vt 1.370588 0.128940
vt 1.370588 0.676871
vt -0.249445 1.199299
vt -0.288487 1.199334
vt 0.678999 0.962644
vt 0.493435 0.962644
vt 0.493435 0.015885
vt -0.447761 1.199299
vt -0.486188 0.268821
vt -0.447146 0.268787
vt -0.447749 0.019296
vt 0.307870 -0.169679
vt 0.268827 0.015885
vt 0.268827 -0.169679
vt -0.368428 0.019365
vt -0.406858 0.269262
vt -0.407481 0.019146
vt 0.864563 0.962644
vt 0.678999 0.962644
vt 0.678999 0.015885
vt -0.368439 1.199299
vt -0.407481 1.199334
vt -0.102809 0.672296
vt -0.229039 0.672296
vt -0.229039 0.028266
vt -0.527075 1.199299
vt -0.565502 0.268821
vt -0.526460 0.268787
vt -0.527063 0.019296
vt 0.639955 -0.169679
vt 0.600912 0.015886
vt 0.600912 -0.169679
vt -0.408092 0.019365
vt -0.446523 0.269262
vt -0.447146 0.019146
vt 0.493435 0.962644
vt 0.307871 0.962644
vt 0.307871 0.015885
vt -0.408104 1.199299
vt -0.447146 1.199334
vt 0.307870 0.962644
vt 0.122307 0.962644
vt 0.122307 0.015886
vt -0.606388 1.199299
vt -0.644816 0.268821
vt -0.605774 0.268787
vt -0.606377 0.019296
vt 0.571522 0.015886
vt -0.288487 0.269227
vt 1.019239 0.936448
vt 1.110656 -0.247001
vt 0.864563 1.199334
vt 0.957350 0.015885
vt -0.526460 1.199334
vt -0.526460 0.019080
vt 0.678999 0.015886
vt -0.328152 0.269227
vt 1.390368 0.987994
vt 1.481784 -0.195455
vt -0.063258 1.199334
vt 0.029529 0.015885
vt -0.605774 1.199334
vt -0.605774 0.019080
vt 0.532478 0.015886
vt -0.248822 0.269227
vt 1.263194 0.676871
vt 1.316101 -0.008043
vt 0.678999 0.015886
vt 0.586212 1.199334
vt -0.486803 1.199334
vt -0.486803 0.019080
vt 0.307871 0.015886
vt -0.367816 0.269227
vt 0.864563 0.015885
vt 0.773147 1.199334
vt -0.102809 0.028266
vt -0.165927 0.833304
vt -0.566117 1.199334
vt -0.566117 0.019080
vt 0.639956 0.015886
vt -0.407481 0.269227
vt 0.493435 0.015885
vt 0.402019 1.199334
vt 0.307871 0.015885
vt 0.215084 1.199334
vt -0.645430 1.199334
vt -0.645430 0.019080
vn 0.0000 -1.0000 0.0000
vn 0.0324 0.3694 0.9287
vn 1.0000 0.0000 0.0000
vn -0.0000 -0.0000 1.0000
vn -1.0000 -0.0000 -0.0000
vn 0.0000 0.0000 -1.0000
vn 0.0000 0.3603 -0.9328
vn -0.0000 0.3650 0.9310
vn -0.0324 0.3647 -0.9305
vn -0.0324 0.3648 -0.9305
s off
f 1/1/1 3/2/1 4/3/1
f 10/4/2 6/5/2 9/6/2
f 5/7/3 6/8/3 2/9/3
f 6/5/4 3/10/4 2/11/4
f 7/12/5 8/13/5 4/14/5
f 1/15/6 8/16/6 5/17/6
f 8/16/7 9/18/7 5/17/7
f 11/19/1 13/20/1 14/21/1
f 20/22/2 16/23/2 19/24/2
f 15/25/3 16/26/3 12/27/3
f 16/23/4 13/28/4 12/29/4
f 17/30/5 18/31/5 14/32/5
f 11/33/6 18/34/6 15/35/6
f 18/34/7 19/36/7 15/35/7
f 21/37/1 23/38/1 24/39/1
f 30/40/2 26/41/2 29/42/2
f 25/43/3 26/44/3 22/45/3
f 26/41/4 23/46/4 22/47/4
f 27/48/5 28/49/5 24/50/5
f 21/51/6 28/52/6 25/53/6
f 28/52/7 29/54/7 25/53/7
f 31/55/1 33/56/1 34/57/1
f 40/58/2 36/59/2 39/60/2
f 35/61/3 36/62/3 32/63/3
f 36/59/4 33/64/4 32/65/4
f 37/66/5 38/67/5 34/68/5
f 31/69/6 38/70/6 35/71/6
f 38/70/7 39/72/7 35/71/7
f 41/73/1 43/74/1 44/75/1
f 50/76/2 46/77/2 49/78/2
f 45/79/3 46/80/3 42/81/3
f 46/77/4 43/82/4 42/83/4
f 47/84/5 48/85/5 44/86/5
f 41/87/6 48/88/6 45/89/6
f 48/88/7 49/90/7 45/89/7
f 1/1/1 2/91/1 3/2/1
f 10/4/8 7/92/8 6/5/8
f 2/9/3 1/93/3 5/7/3
f 5/7/3 9/94/3 6/8/3
f 6/5/4 7/92/4 3/10/4
f 4/14/5 3/95/5 7/12/5
f 7/12/5 10/96/5 8/13/5
f 1/15/6 4/97/6 8/16/6
f 8/16/9 10/98/9 9/18/9
f 11/19/1 12/99/1 13/20/1
f 20/22/8 17/100/8 16/23/8
f 12/27/3 11/101/3 15/25/3
f 15/25/3 19/102/3 16/26/3
f 16/23/4 17/100/4 13/28/4
f 14/32/5 13/103/5 17/30/5
f 17/30/5 20/104/5 18/31/5
f 11/33/6 14/105/6 18/34/6
f 18/34/10 20/106/10 19/36/10
f 21/37/1 22/107/1 23/38/1
f 30/40/8 27/108/8 26/41/8
f 22/45/3 21/109/3 25/43/3
f 25/43/3 29/110/3 26/44/3
f 26/41/4 27/108/4 23/46/4
f 24/50/5 23/111/5 27/48/5
f 27/48/5 30/112/5 28/49/5
f 21/51/6 24/113/6 28/52/6
f 28/52/9 30/114/9 29/54/9
f 31/55/1 32/115/1 33/56/1
f 40/58/8 37/116/8 36/59/8
f 32/63/3 31/117/3 35/61/3
f 35/61/3 39/118/3 36/62/3
f 36/59/4 37/116/4 33/64/4
f 34/68/5 33/119/5 37/66/5
f 37/66/5 40/120/5 38/67/5
f 31/69/6 34/121/6 38/70/6
f 38/70/9 40/122/9 39/72/9
f 41/73/1 42/123/1 43/74/1
f 50/76/8 47/124/8 46/77/8
f 42/81/3 41/125/3 45/79/3
f 45/79/3 49/126/3 46/80/3
f 46/77/4 47/124/4 43/82/4
f 44/86/5 43/127/5 47/84/5
f 47/84/5 50/128/5 48/85/5
f 41/87/6 44/129/6 48/88/6
f 48/88/9 50/130/9 49/90/9
o Fence.006_Cube.017
v -1.789107 0.081854 -2.542793
v -2.181012 0.081854 -2.551323
v -2.179218 0.081854 -2.633782
v -1.787312 0.081854 -2.625252
v -1.789107 2.081854 -2.542793
v -2.181013 2.081854 -2.551324
v -2.179217 2.081854 -2.633782
v -1.787312 2.081854 -2.625252
v -1.982175 2.581854 -2.546996
v -1.983255 2.581854 -2.629517
v -0.789344 0.081854 -2.521033
v -1.181249 0.081854 -2.529563
v -1.179454 0.081854 -2.612022
v -0.787548 0.081854 -2.603491
v -0.789344 2.081854 -2.521033
v -1.181250 2.081854 -2.529564
v -1.179454 2.081854 -2.612022
v -0.787549 2.081854 -2.603492
v -0.982412 2.581854 -2.525235
v -0.983492 2.581854 -2.607757
v 0.210420 0.081854 -2.499273
v -0.181486 0.081854 -2.507803
v -0.179691 0.081854 -2.590261
v 0.212215 0.081854 -2.581731
v 0.210419 2.081854 -2.499272
v -0.181487 2.081854 -2.507803
v -0.179691 2.081854 -2.590261
v 0.212214 2.081854 -2.581731
v 0.017351 2.581854 -2.503475
v 0.016271 2.581854 -2.585996
v 1.210183 0.081854 -2.477512
v 0.818277 0.081854 -2.486042
v 0.820072 0.081854 -2.568501
v 1.211978 0.081854 -2.559970
v 1.210182 2.081854 -2.477512
v 0.818277 2.081854 -2.486043
v 0.820072 2.081854 -2.568501
v 1.211978 2.081854 -2.559971
v 1.017114 2.581854 -2.481715
v 1.016035 2.581854 -2.564236
v 2.209946 0.081854 -2.455752
v 1.818040 0.081854 -2.464282
v 1.819835 0.081854 -2.546741
v 2.211741 0.081854 -2.538210
v 2.209946 2.081854 -2.455751
v 1.818040 2.081854 -2.464283
v 1.819836 2.081854 -2.546741
v 2.211741 2.081854 -2.538210
v 2.016877 2.581854 -2.459954
v 2.015798 2.581854 -2.542475
vt 0.571521 -0.169678
vt 0.532478 0.015886
vt 0.532478 -0.169679
vt -0.289098 0.019365
vt -0.327529 0.269262
vt -0.328151 0.019146
vt 1.019240 -0.010311
vt 1.204804 -0.010311
vt 1.204803 0.936448
vt -0.289109 1.199299
vt -0.328152 1.199334
vt 0.864563 0.252575
vt 1.050127 0.252575
vt 1.050127 1.199334
vt -0.487418 1.199299
vt -0.525845 0.268821
vt -0.486803 0.268787
vt -0.487406 0.019296
vt 0.678999 -0.169679
vt 0.639956 0.015885
vt 0.639956 -0.169679
vt -0.328763 0.019365
vt -0.367193 0.269262
vt -0.367816 0.019146
vt 1.390368 0.041235
vt 1.575932 0.041235
vt 1.575932 0.987994
vt -0.328774 1.199299
vt -0.367816 1.199334
vt -0.063258 0.252575
vt 0.122306 0.252575
vt 0.122307 1.199334
vt -0.566732 1.199299
vt -0.605159 0.268821
vt -0.566117 0.268787
vt -0.566720 0.019296
vt 0.532478 -0.169679
vt 0.493435 0.015885
vt 0.493435 -0.169679
vt -0.249433 0.019365
vt -0.287864 0.269262
vt -0.288486 0.019146
vt 1.263194 0.128940
vt 1.370588 0.128940
vt 1.370588 0.676871
vt -0.249445 1.199299
vt -0.288487 1.199334
vt 0.678999 0.962644
vt 0.493435 0.962644
vt 0.493435 0.015885
vt -0.447761 1.199299
vt -0.486188 0.268821
vt -0.447146 0.268787
vt -0.447749 0.019296
vt 0.307870 -0.169679
vt 0.268827 0.015885
vt 0.268827 -0.169679
vt -0.368428 0.019365
vt -0.406858 0.269262
vt -0.407481 0.019146
vt 0.864563 0.962644
vt 0.678999 0.962644
vt 0.678999 0.015885
vt -0.368439 1.199299
vt -0.407481 1.199334
vt -0.102809 0.672296
vt -0.229039 0.672296
vt -0.229039 0.028266
vt -0.527075 1.199299
vt -0.565502 0.268821
vt -0.526460 0.268787
vt -0.527063 0.019296
vt 0.639955 -0.169679
vt 0.600912 0.015886
vt 0.600912 -0.169679
vt -0.408092 0.019365
vt -0.446523 0.269262
vt -0.447146 0.019146
vt 0.493435 0.962644
vt 0.307871 0.962644
vt 0.307871 0.015885
vt -0.408104 1.199299
vt -0.447146 1.199334
vt 0.307870 0.962644
vt 0.122307 0.962644
vt 0.122307 0.015886
vt -0.606388 1.199299
vt -0.644816 0.268821
vt -0.605774 0.268787
vt -0.606377 0.019296
vt 0.571522 0.015886
vt -0.288487 0.269227
vt 1.019239 0.936448
vt 1.110656 -0.247001
vt 0.864563 1.199334
vt 0.957350 0.015885
vt -0.526460 1.199334
vt -0.526460 0.019080
vt 0.678999 0.015886
vt -0.328152 0.269227
vt 1.390368 0.987994
vt 1.481784 -0.195455
vt -0.063258 1.199334
vt 0.029529 0.015885
vt -0.605774 1.199334
vt -0.605774 0.019080
vt 0.532478 0.015886
vt -0.248822 0.269227
vt 1.263194 0.676871
vt 1.316101 -0.008043
vt 0.678999 0.015886
vt 0.586212 1.199334
vt -0.486803 1.199334
vt -0.486803 0.019080
vt 0.307871 0.015886
vt -0.367816 0.269227
vt 0.864563 0.015885
vt 0.773147 1.199334
vt -0.102809 0.028266
vt -0.165927 0.833304
vt -0.566117 1.199334
vt -0.566117 0.019080
vt 0.639956 0.015886
vt -0.407481 0.269227
vt 0.493435 0.015885
vt 0.402019 1.199334
vt 0.307871 0.015885
vt 0.215084 1.199334
vt -0.645430 1.199334
vt -0.645430 0.019080
vn 0.0000 -1.0000 0.0000
vn -0.9292 0.3694 0.0122
vn -0.0218 0.0000 0.9998
vn -0.9998 -0.0000 -0.0218
vn 0.0218 -0.0000 -0.9998
vn 0.9998 0.0000 0.0218
vn 0.9326 0.3603 0.0203
vn -0.9308 0.3650 -0.0203
vn 0.9310 0.3648 -0.0122
s off
f 51/131/11 53/132/11 54/133/11
f 60/134/12 56/135/12 59/136/12
f 55/137/13 56/138/13 52/139/13
f 56/135/14 53/140/14 52/141/14
f 57/142/15 58/143/15 54/144/15
f 51/145/16 58/146/16 55/147/16
f 58/146/17 59/148/17 55/147/17
f 61/149/11 63/150/11 64/151/11
f 70/152/12 66/153/12 69/154/12
f 65/155/13 66/156/13 62/157/13
f 66/153/14 63/158/14 62/159/14
f 67/160/15 68/161/15 64/162/15
f 61/163/16 68/164/16 65/165/16
f 68/164/17 69/166/17 65/165/17
f 71/167/11 73/168/11 74/169/11
f 80/170/12 76/171/12 79/172/12
f 75/173/13 76/174/13 72/175/13
f 76/171/14 73/176/14 72/177/14
f 77/178/15 78/179/15 74/180/15
f 71/181/16 78/182/16 75/183/16
f 78/182/17 79/184/17 75/183/17
f 81/185/11 83/186/11 84/187/11
f 90/188/12 86/189/12 89/190/12
f 85/191/13 86/192/13 82/193/13
f 86/189/14 83/194/14 82/195/14
f 87/196/15 88/197/15 84/198/15
f 81/199/16 88/200/16 85/201/16
f 88/200/17 89/202/17 85/201/17
f 91/203/11 93/204/11 94/205/11
f 100/206/12 96/207/12 99/208/12
f 95/209/13 96/210/13 92/211/13
f 96/207/14 93/212/14 92/213/14
f 97/214/15 98/215/15 94/216/15
f 91/217/16 98/218/16 95/219/16
f 98/218/17 99/220/17 95/219/17
f 51/131/11 52/221/11 53/132/11
f 60/134/18 57/222/18 56/135/18
f 52/139/13 51/223/13 55/137/13
f 55/137/13 59/224/13 56/138/13
f 56/135/14 57/222/14 53/140/14
f 54/144/15 53/225/15 57/142/15
f 57/142/15 60/226/15 58/143/15
f 51/145/16 54/227/16 58/146/16
f 58/146/19 60/228/19 59/148/19
f 61/149/11 62/229/11 63/150/11
f 70/152/18 67/230/18 66/153/18
f 62/157/13 61/231/13 65/155/13
f 65/155/13 69/232/13 66/156/13
f 66/153/14 67/230/14 63/158/14
f 64/162/15 63/233/15 67/160/15
f 67/160/15 70/234/15 68/161/15
f 61/163/16 64/235/16 68/164/16
f 68/164/19 70/236/19 69/166/19
f 71/167/11 72/237/11 73/168/11
f 80/170/18 77/238/18 76/171/18
f 72/175/13 71/239/13 75/173/13
f 75/173/13 79/240/13 76/174/13
f 76/171/14 77/238/14 73/176/14
f 74/180/15 73/241/15 77/178/15
f 77/178/15 80/242/15 78/179/15
f 71/181/16 74/243/16 78/182/16
f 78/182/19 80/244/19 79/184/19
f 81/185/11 82/245/11 83/186/11
f 90/188/18 87/246/18 86/189/18
f 82/193/13 81/247/13 85/191/13
f 85/191/13 89/248/13 86/192/13
f 86/189/14 87/246/14 83/194/14
f 84/198/15 83/249/15 87/196/15
f 87/196/15 90/250/15 88/197/15
f 81/199/16 84/251/16 88/200/16
f 88/200/19 90/252/19 89/202/19
f 91/203/11 92/253/11 93/204/11
f 100/206/18 97/254/18 96/207/18
f 92/211/13 91/255/13 95/209/13
f 95/209/13 99/256/13 96/210/13
f 96/207/14 97/254/14 93/212/14
f 94/216/15 93/257/15 97/214/15
f 97/214/15 100/258/15 98/215/15
f 91/217/16 94/259/16 98/218/16
f 98/218/19 100/260/19 99/220/19
o Fence2.005_Plane.006
v -2.650081 1.369019 2.572853
v -2.650081 1.777968 2.572853
v -2.650081 1.369019 -2.573448
v -2.650081 1.777968 -2.573448
v -2.650081 1.369019 2.572853
v -2.650081 1.777968 2.572853
v -2.650081 1.369019 -2.573448
v -2.650081 1.777968 -2.573448
v -2.550081 1.369019 2.572853
v -2.550081 1.777968 2.572853
v -2.550081 1.369019 -2.573448
v -2.550081 1.777968 -2.573448
v -2.650081 0.722700 2.572853
v -2.650081 1.131648 2.572853
v -2.650081 0.722700 -2.573448
v -2.650081 1.131648 -2.573448
v -2.650081 0.722700 2.572853
v -2.650081 1.131648 2.572853
v -2.650081 0.722700 -2.573448
v -2.650081 1.131648 -2.573448
v -2.550081 0.722700 2.572853
v -2.550081 1.131648 2.572853
v -2.550081 0.722700 -2.573448
v -2.550081 1.131648 -2.573448
vt 0.173404 1.000799
vt 0.940069 0.151970
vt 0.173404 0.151970
vt 1.549162 0.290115
vt 0.700332 0.340115
vt 0.700332 0.290115
vt 0.348361 0.700332
vt 0.348361 1.549162
vt 0.348361 0.700332
vt 0.581696 0.549162
vt 0.581696 -0.299668
vt 0.581696 0.549162
vt 0.348361 0.549162
vt -0.418304 0.549162
vt 0.348361 0.549162
vt 0.581696 0.700332
vt 1.348361 0.700332
vt 0.581696 0.700332
vt 0.738009 0.062854
vt -0.028655 0.911683
vt -0.028655 0.062854
vt -0.299668 0.290115
vt 0.549162 0.340115
vt 0.549162 0.290115
vt -0.418304 0.290115
vt 0.348361 0.340115
vt 0.348361 0.290115
vt 1.348361 0.290115
vt 0.581696 0.340115
vt 0.581696 0.290115
vt 0.113872 1.004773
vt 0.880537 0.155943
vt 0.113872 0.155943
vt 1.549162 0.290115
vt 0.700332 0.340115
vt 0.700332 0.290115
vt 0.560030 0.700332
vt 0.560030 1.549162
vt 0.560030 0.700332
vt 0.793365 0.549162
vt 0.793365 -0.299668
vt 0.793365 0.549162
vt 0.560030 0.549162
vt -0.206635 0.549162
vt 0.560030 0.549162
vt 0.793365 0.700332
vt 1.560030 0.700332
vt 0.793365 0.700332
vt 0.949678 0.062854
vt 0.183014 0.911683
vt 0.183014 0.062854
vt -0.299668 0.290115
vt 0.549162 0.340115
vt 0.549162 0.290115
vt -0.206635 0.290115
vt 0.560030 0.340115
vt 0.560030 0.290115
vt 1.560030 0.290115
vt 0.793365 0.340115
vt 0.793365 0.290115
vt 0.940069 1.000799
vt 1.549162 0.340115
vt 0.348361 1.549162
vt 0.581696 -0.299668
vt -0.418304 0.549162
vt 1.348361 0.700332
vt 0.738009 0.911683
vt -0.299668 0.340115
vt -0.418304 0.340115
vt 1.348361 0.340115
vt 0.880537 1.004773
vt 1.549162 0.340115
vt 0.560030 1.549162
vt 0.793365 -0.299668
vt -0.206635 0.549162
vt 1.560030 0.700332
vt 0.949678 0.911683
vt -0.299668 0.340115
vt -0.206635 0.340115
vt 1.560030 0.340115
vn -1.0000 0.0000 0.0000
vn 0.0000 -1.0000 0.0000
vn 0.0000 0.0000 1.0000
vn 1.0000 0.0000 0.0000
vn 0.0000 1.0000 0.0000
vn 0.0000 0.0000 -1.0000
s off
f 104/261/20 101/262/20 102/263/20
f 107/264/21 109/265/21 105/266/21
f 101/267/22 107/268/22 105/269/22
f 104/270/22 106/271/22 108/272/22
f 103/273/22 108/274/22 107/275/22
f 102/276/22 105/277/22 106/278/22
f 109/279/23 112/280/23 110/281/23
f 106/282/24 112/283/24 108/284/24
f 108/285/25 111/286/25 107/287/25
f 105/288/22 110/289/22 106/290/22
f 116/291/20 113/292/20 114/293/20
f 119/294/21 121/295/21 117/296/21
f 113/297/22 119/298/22 117/299/22
f 116/300/22 118/301/22 120/302/22
f 115/303/22 120/304/22 119/305/22
f 114/306/22 117/307/22 118/308/22
f 121/309/23 124/310/23 122/311/23
f 118/312/24 124/313/24 120/314/24
f 120/315/25 123/316/25 119/317/25
f 117/318/22 122/319/22 118/320/22
f 104/261/20 103/321/20 101/262/20
f 107/264/21 111/322/21 109/265/21
f 101/267/22 103/323/22 107/268/22
f 104/270/22 102/324/22 106/271/22
f 103/273/22 104/325/22 108/274/22
f 102/276/22 101/326/22 105/277/22
f 109/279/23 111/327/23 112/280/23
f 106/282/24 110/328/24 112/283/24
f 108/285/25 112/329/25 111/286/25
f 105/288/22 109/330/22 110/289/22
f 116/291/20 115/331/20 113/292/20
f 119/294/21 123/332/21 121/295/21
f 113/297/22 115/333/22 119/298/22
f 116/300/22 114/334/22 118/301/22
f 115/303/22 116/335/22 120/304/22
f 114/306/22 113/336/22 117/307/22
f 121/309/23 123/337/23 124/310/23
f 118/312/24 122/338/24 124/313/24
f 120/315/25 124/339/25 123/316/25
f 117/318/22 121/340/22 122/319/22
o Fence2.006_Plane.007
v -2.561989 1.369019 -2.649430
v -2.561989 1.777968 -2.649430
v 2.583094 1.369020 -2.537445
v 2.583094 1.777968 -2.537445
v -2.561989 1.369019 -2.649430
v -2.561989 1.777968 -2.649430
v 2.583094 1.369020 -2.537445
v 2.583094 1.777968 -2.537445
v -2.564165 1.369019 -2.549454
v -2.564165 1.777968 -2.549454
v 2.580918 1.369020 -2.437469
v 2.580918 1.777968 -2.437469
v -2.561989 0.722699 -2.649430
v -2.561989 1.131648 -2.649430
v 2.583094 0.722700 -2.537445
v 2.583094 1.131649 -2.537445
v -2.561989 0.722699 -2.649430
v -2.561989 1.131648 -2.649430
v 2.583094 0.722700 -2.537445
v 2.583094 1.131649 -2.537445
v -2.564165 0.722699 -2.549454
v -2.564165 1.131648 -2.549454
v 2.580918 0.722700 -2.437469
v 2.580918 1.131649 -2.437469
vt 0.173404 1.000799
vt 0.940069 0.151970
vt 0.173404 0.151970
vt 1.549162 0.290115
vt 0.700332 0.340115
vt 0.700332 0.290115
vt 0.348361 0.700332
vt 0.348361 1.549162
vt 0.348361 0.700332
vt 0.581696 0.549162
vt 0.581696 -0.299668
vt 0.581696 0.549162
vt 0.348361 0.549162
vt -0.418304 0.549162
vt 0.348361 0.549162
vt 0.581696 0.700332
vt 1.348361 0.700332
vt 0.581696 0.700332
vt 0.738009 0.062854
vt -0.028655 0.911683
vt -0.028655 0.062854
vt -0.299668 0.290115
vt 0.549162 0.340115
vt 0.549162 0.290115
vt -0.418304 0.290115
vt 0.348361 0.340115
vt 0.348361 0.290115
vt 1.348361 0.290115
vt 0.581696 0.340115
vt 0.581696 0.290115
vt 0.113872 1.004773
vt 0.880537 0.155943
vt 0.113872 0.155943
vt 1.549162 0.290115
vt 0.700332 0.340115
vt 0.700332 0.290115
vt 0.560030 0.700332
vt 0.560030 1.549162
vt 0.560030 0.700332
vt 0.793365 0.549162
vt 0.793365 -0.299668
vt 0.793365 0.549162
vt 0.560030 0.549162
vt -0.206635 0.549162
vt 0.560030 0.549162
vt 0.793365 0.700332
vt 1.560030 0.700332
vt 0.793365 0.700332
vt 0.949678 0.062854
vt 0.183014 0.911683
vt 0.183014 0.062854
vt -0.299668 0.290115
vt 0.549162 0.340115
vt 0.549162 0.290115
vt -0.206635 0.290115
vt 0.560030 0.340115
vt 0.560030 0.290115
vt 1.560030 0.290115
vt 0.793365 0.340115
vt 0.793365 0.290115
vt 0.940069 1.000799
vt 1.549162 0.340115
vt 0.348361 1.549162
vt 0.581696 -0.299668
vt -0.418304 0.549162
vt 1.348361 0.700332
vt 0.738009 0.911683
vt -0.299668 0.340115
vt -0.418304 0.340115
vt 1.348361 0.340115
vt 0.880537 1.004773
vt 1.549162 0.340115
vt 0.560030 1.549162
vt 0.793365 -0.299668
vt -0.206635 0.549162
vt 1.560030 0.700332
vt 0.949678 0.911683
vt -0.299668 0.340115
vt -0.206635 0.340115
vt 1.560030 0.340115
vn 0.0218 0.0000 -0.9998
vn 0.0000 -1.0000 -0.0000
vn 0.0000 0.0000 1.0000
vn -0.0218 0.0000 0.9998
vn -0.0000 1.0000 -0.0000
vn 0.9998 0.0000 0.0218
vn -0.9998 0.0000 -0.0218
s off
f 128/341/26 125/342/26 126/343/26
f 131/344/27 133/345/27 129/346/27
f 125/347/28 131/348/28 129/349/28
f 128/350/28 130/351/28 132/352/28
f 127/353/28 132/354/28 131/355/28
f 126/356/28 129/357/28 130/358/28
f 133/359/29 136/360/29 134/361/29
f 130/362/30 136/363/30 132/364/30
f 132/365/31 135/366/31 131/367/31
f 129/368/32 134/369/32 130/370/32
f 140/371/26 137/372/26 138/373/26
f 143/374/27 145/375/27 141/376/27
f 137/377/28 143/378/28 141/379/28
f 140/380/28 142/381/28 144/382/28
f 139/383/28 144/384/28 143/385/28
f 138/386/28 141/387/28 142/388/28
f 145/389/29 148/390/29 146/391/29
f 142/392/30 148/393/30 144/394/30
f 144/395/31 147/396/31 143/397/31
f 141/398/32 146/399/32 142/400/32
f 128/341/26 127/401/26 125/342/26
f 131/344/27 135/402/27 133/345/27
f 125/347/28 127/403/28 131/348/28
f 128/350/28 126/404/28 130/351/28
f 127/353/28 128/405/28 132/354/28
f 126/356/28 125/406/28 129/357/28
f 133/359/29 135/407/29 136/360/29
f 130/362/30 134/408/30 136/363/30
f 132/365/31 136/409/31 135/366/31
f 129/368/32 133/410/32 134/369/32
f 140/371/26 139/411/26 137/372/26
f 143/374/27 147/412/27 145/375/27
f 137/377/28 139/413/28 143/378/28
f 140/380/28 138/414/28 142/381/28
f 139/383/28 140/415/28 144/384/28
f 138/386/28 137/416/28 141/387/28
f 145/389/29 147/417/29 148/390/29
f 142/392/30 146/418/30 148/393/30
f 144/395/31 148/419/31 147/396/31
f 141/398/32 145/420/32 146/399/32
