# Blender v2.93.4 OBJ File: 'KirbyV2.blend'
# www.blender.org
o Cheek_Plane.002
v 0.395991 -0.181856 0.824786
v 0.582538 -0.173264 0.714274
v 0.400072 -0.049757 0.841544
v 0.584688 -0.040647 0.727807
v 0.384514 -0.064435 0.847264
v 0.372618 -0.080768 0.850755
v 0.365409 -0.098542 0.852110
v 0.362684 -0.116943 0.851055
v 0.364381 -0.135191 0.847563
v 0.370793 -0.152566 0.842175
v 0.381523 -0.168178 0.834369
v 0.416415 -0.191337 0.812797
v 0.439528 -0.198150 0.799782
v 0.464510 -0.201695 0.785208
v 0.490653 -0.202106 0.770292
v 0.516544 -0.199368 0.755087
v 0.541119 -0.193529 0.740349
v 0.563189 -0.184647 0.726605
v 0.596440 -0.158161 0.705880
v 0.607153 -0.141511 0.700467
v 0.613478 -0.123491 0.697677
v 0.615597 -0.104921 0.697728
v 0.613853 -0.086658 0.701099
v 0.608238 -0.069472 0.707712
v 0.598093 -0.054030 0.716470
v 0.566323 -0.031671 0.743201
v 0.544798 -0.025246 0.758905
v 0.520383 -0.021835 0.774480
v 0.494990 -0.021614 0.790670
v 0.469603 -0.024486 0.806637
v 0.444195 -0.030110 0.819942
v 0.420832 -0.038695 0.831534
v 0.408390 -0.173600 0.820647
v 0.435532 -0.177682 0.805724
v 0.463654 -0.179834 0.790318
v 0.492065 -0.179738 0.774215
v 0.520198 -0.177316 0.757743
v 0.546907 -0.172591 0.740343
v 0.572674 -0.166071 0.723767
v 0.401608 -0.155118 0.827027
v 0.432307 -0.157063 0.811353
v 0.462990 -0.157916 0.795085
v 0.493415 -0.157356 0.778040
v 0.523114 -0.155166 0.759887
v 0.552003 -0.151565 0.740828
v 0.579927 -0.146840 0.720964
v 0.397648 -0.135845 0.832237
v 0.430545 -0.136181 0.816333
v 0.462710 -0.135897 0.799224
v 0.494194 -0.134845 0.780970
v 0.525195 -0.132960 0.761939
v 0.555630 -0.130363 0.742026
v 0.584749 -0.127060 0.720098
v 0.396895 -0.116078 0.836047
v 0.430191 -0.114995 0.819628
v 0.462682 -0.113689 0.801913
v 0.494970 -0.112334 0.783897
v 0.526449 -0.110777 0.764501
v 0.557128 -0.109033 0.743801
v 0.586789 -0.107065 0.721405
v 0.398893 -0.096098 0.837307
v 0.431582 -0.093652 0.821224
v 0.463769 -0.091476 0.804236
v 0.495498 -0.089760 0.786409
v 0.526289 -0.088549 0.767002
v 0.556180 -0.087724 0.746118
v 0.585881 -0.087264 0.724954
v 0.404055 -0.076432 0.837035
v 0.434894 -0.072393 0.821947
v 0.465722 -0.069250 0.806120
v 0.495538 -0.067089 0.788167
v 0.525047 -0.066319 0.769604
v 0.553499 -0.066646 0.749619
v 0.581724 -0.067968 0.729847
v 0.411829 -0.057357 0.835114
v 0.439297 -0.051230 0.821357
v 0.467429 -0.046842 0.806319
v 0.495089 -0.044302 0.789119
v 0.523027 -0.044099 0.772224
v 0.549488 -0.045862 0.754019
v 0.574757 -0.049476 0.735942
v -0.395991 -0.181856 0.824786
v -0.582538 -0.173264 0.714274
v -0.400072 -0.049757 0.841544
v -0.584688 -0.040647 0.727807
v -0.384514 -0.064435 0.847264
v -0.372618 -0.080768 0.850755
v -0.365409 -0.098542 0.852110
v -0.362684 -0.116943 0.851055
v -0.364381 -0.135191 0.847563
v -0.370793 -0.152566 0.842175
v -0.381523 -0.168178 0.834369
v -0.416415 -0.191337 0.812797
v -0.439528 -0.198150 0.799782
v -0.464510 -0.201695 0.785208
v -0.490653 -0.202106 0.770292
v -0.516544 -0.199368 0.755087
v -0.541119 -0.193529 0.740349
v -0.563189 -0.184647 0.726605
v -0.596440 -0.158161 0.705880
v -0.607153 -0.141511 0.700467
v -0.613478 -0.123491 0.697677
v -0.615597 -0.104921 0.697728
v -0.613853 -0.086658 0.701099
v -0.608238 -0.069472 0.707712
v -0.598093 -0.054030 0.716470
v -0.566323 -0.031671 0.743201
v -0.544798 -0.025246 0.758905
v -0.520383 -0.021835 0.774480
v -0.494990 -0.021614 0.790670
v -0.469603 -0.024486 0.806637
v -0.444195 -0.030110 0.819942
v -0.420832 -0.038695 0.831534
v -0.408390 -0.173600 0.820647
v -0.435532 -0.177682 0.805724
v -0.463654 -0.179834 0.790318
v -0.492065 -0.179738 0.774215
v -0.520198 -0.177316 0.757743
v -0.546907 -0.172591 0.740343
v -0.572674 -0.166071 0.723767
v -0.401608 -0.155118 0.827027
v -0.432307 -0.157063 0.811353
v -0.462990 -0.157916 0.795085
v -0.493415 -0.157356 0.778040
v -0.523114 -0.155166 0.759887
v -0.552003 -0.151565 0.740828
v -0.579927 -0.146840 0.720964
v -0.397648 -0.135845 0.832237
v -0.430545 -0.136181 0.816333
v -0.462710 -0.135897 0.799224
v -0.494194 -0.134845 0.780970
v -0.525195 -0.132960 0.761939
v -0.555630 -0.130363 0.742026
v -0.584749 -0.127060 0.720098
v -0.396895 -0.116078 0.836047
v -0.430191 -0.114995 0.819628
v -0.462682 -0.113689 0.801913
v -0.494970 -0.112334 0.783897
v -0.526449 -0.110777 0.764501
v -0.557128 -0.109033 0.743801
v -0.586789 -0.107065 0.721405
v -0.398893 -0.096098 0.837307
v -0.431582 -0.093652 0.821224
v -0.463769 -0.091476 0.804236
v -0.495498 -0.089760 0.786409
v -0.526289 -0.088549 0.767002
v -0.556180 -0.087724 0.746118
v -0.585881 -0.087264 0.724954
v -0.404055 -0.076432 0.837035
v -0.434894 -0.072393 0.821947
v -0.465722 -0.069250 0.806120
v -0.495538 -0.067089 0.788167
v -0.525047 -0.066319 0.769604
v -0.553499 -0.066646 0.749619
v -0.581724 -0.067968 0.729847
v -0.411829 -0.057357 0.835114
v -0.439297 -0.051230 0.821357
v -0.467429 -0.046842 0.806319
v -0.495089 -0.044302 0.789119
v -0.523027 -0.044099 0.772224
v -0.549488 -0.045862 0.754019
v -0.574757 -0.049476 0.735942
vt 0.125000 0.125000
vt 0.250000 0.250000
vt 0.125000 0.250000
vt 0.250000 0.125000
vt 0.375000 0.250000
vt 0.375000 0.125000
vt 0.500000 0.250000
vt 0.625000 0.125000
vt 0.500000 0.125000
vt 0.750000 0.125000
vt 0.625000 0.250000
vt 0.875000 0.125000
vt 0.750000 0.250000
vt 0.250000 0.375000
vt 0.125000 0.375000
vt 0.375000 0.375000
vt 0.500000 0.375000
vt 0.625000 0.375000
vt 0.875000 0.250000
vt 0.750000 0.375000
vt 0.250000 0.500000
vt 0.125000 0.500000
vt 0.375000 0.500000
vt 0.500000 0.500000
vt 0.625000 0.500000
vt 0.875000 0.375000
vt 0.750000 0.500000
vt 0.125000 0.625000
vt 0.250000 0.625000
vt 0.375000 0.625000
vt 0.625000 0.625000
vt 0.500000 0.625000
vt 0.750000 0.625000
vt 0.875000 0.625000
vt 0.125000 0.750000
vt 0.250000 0.750000
vt 0.375000 0.750000
vt 0.625000 0.750000
vt 0.500000 0.750000
vt 0.750000 0.750000
vt 0.875000 0.750000
vt 0.125000 0.875000
vt 0.250000 0.875000
vt 0.375000 0.875000
vt 0.625000 0.875000
vt 0.500000 0.875000
vt 0.750000 0.875000
vt 0.875000 0.875000
vt 0.000000 0.000000
vt 0.000000 0.125000
vt 0.125000 0.000000
vt 0.250000 0.000000
vt 0.375000 0.000000
vt 0.625000 0.000000
vt 0.500000 0.000000
vt 0.750000 0.000000
vt 0.875000 0.000000
vt 1.000000 0.000000
vt 1.000000 0.125000
vt 1.000000 0.250000
vt 1.000000 0.375000
vt 0.875000 0.500000
vt 1.000000 0.625000
vt 1.000000 0.750000
vt 1.000000 0.875000
vt 1.000000 1.000000
vt 0.875000 1.000000
vt 0.750000 1.000000
vt 0.625000 1.000000
vt 0.500000 1.000000
vt 0.375000 1.000000
vt 0.250000 1.000000
vt 0.125000 1.000000
vt 0.000000 1.000000
vt 0.000000 0.875000
vt 0.000000 0.750000
vt 0.000000 0.625000
vt 0.000000 0.500000
vt 0.000000 0.375000
vt 0.000000 0.250000
vt 0.125000 0.125000
vt 0.250000 0.250000
vt 0.250000 0.125000
vt 0.375000 0.250000
vt 0.375000 0.125000
vt 0.500000 0.250000
vt 0.500000 0.125000
vt 0.625000 0.125000
vt 0.625000 0.250000
vt 0.750000 0.125000
vt 0.750000 0.250000
vt 0.875000 0.125000
vt 0.125000 0.250000
vt 0.250000 0.375000
vt 0.375000 0.375000
vt 0.500000 0.375000
vt 0.625000 0.375000
vt 0.750000 0.375000
vt 0.875000 0.250000
vt 0.125000 0.375000
vt 0.250000 0.500000
vt 0.375000 0.500000
vt 0.500000 0.500000
vt 0.625000 0.500000
vt 0.750000 0.500000
vt 0.875000 0.375000
vt 0.125000 0.625000
vt 0.125000 0.500000
vt 0.250000 0.625000
vt 0.375000 0.625000
vt 0.625000 0.625000
vt 0.750000 0.625000
vt 0.875000 0.625000
vt 0.875000 0.500000
vt 0.125000 0.750000
vt 0.250000 0.750000
vt 0.375000 0.750000
vt 0.500000 0.625000
vt 0.625000 0.750000
vt 0.750000 0.750000
vt 0.875000 0.750000
vt 0.125000 0.875000
vt 0.250000 0.875000
vt 0.375000 0.875000
vt 0.500000 0.750000
vt 0.625000 0.875000
vt 0.750000 0.875000
vt 0.875000 0.875000
vt 0.000000 0.000000
vt 0.125000 0.000000
vt 0.250000 0.000000
vt 0.375000 0.000000
vt 0.500000 0.000000
vt 0.625000 0.000000
vt 0.750000 0.000000
vt 0.875000 0.000000
vt 1.000000 0.000000
vt 1.000000 0.125000
vt 1.000000 0.250000
vt 1.000000 0.375000
vt 1.000000 0.625000
vt 1.000000 0.500000
vt 1.000000 0.750000
vt 1.000000 0.875000
vt 1.000000 1.000000
vt 0.875000 1.000000
vt 0.750000 1.000000
vt 0.500000 0.875000
vt 0.625000 1.000000
vt 0.375000 1.000000
vt 0.250000 1.000000
vt 0.125000 1.000000
vt 0.000000 1.000000
vt 0.000000 0.875000
vt 0.000000 0.750000
vt 0.000000 0.625000
vt 0.000000 0.500000
vt 0.000000 0.375000
vt 0.000000 0.250000
vt 0.000000 0.125000
vt 1.000000 0.500000
vt 0.500000 1.000000
vn 0.4428 -0.1430 0.8851
vn 0.4582 -0.1667 0.8731
vn 0.4839 -0.1720 0.8581
vn 0.5086 -0.1748 0.8431
vn 0.5583 -0.1524 0.8155
vn 0.5619 -0.1549 0.8126
vn 0.4289 -0.1526 0.8904
vn 0.4641 -0.1683 0.8697
vn 0.4995 -0.1539 0.8526
vn 0.5241 -0.1277 0.8420
vn 0.5572 -0.1280 0.8204
vn 0.5897 -0.1458 0.7943
vn 0.4410 -0.1536 0.8842
vn 0.4788 -0.1271 0.8687
vn 0.4879 -0.1043 0.8666
vn 0.5245 -0.1275 0.8418
vn 0.5506 -0.1264 0.8251
vn 0.6058 -0.1082 0.7882
vn 0.4427 -0.1005 0.8910
vn 0.4795 -0.0964 0.8722
vn 0.4877 -0.1144 0.8655
vn 0.5332 -0.1059 0.8393
vn 0.5721 -0.0876 0.8155
vn 0.5798 -0.0625 0.8123
vn 0.4454 -0.1045 0.8892
vn 0.4697 -0.1030 0.8768
vn 0.4913 -0.1163 0.8632
vn 0.5325 -0.0663 0.8438
vn 0.5731 -0.0636 0.8170
vn 0.5706 -0.0634 0.8188
vn 0.4474 -0.0928 0.8895
vn 0.4613 -0.0713 0.8844
vn 0.5178 -0.0470 0.8542
vn 0.5175 -0.0256 0.8553
vn 0.5641 -0.0459 0.8244
vn 0.5749 -0.0618 0.8159
vn 0.4180 -0.1815 0.8901
vn 0.4527 -0.1816 0.8730
vn 0.4645 -0.1621 0.8706
vn 0.4854 -0.1809 0.8553
vn 0.5122 -0.1796 0.8399
vn 0.5376 -0.1881 0.8219
vn 0.5667 -0.1564 0.8089
vn 0.6049 -0.1908 0.7731
vn 0.6225 -0.1221 0.7731
vn 0.6117 -0.1149 0.7827
vn 0.6200 -0.1140 0.7763
vn 0.6466 -0.1058 0.7555
vn 0.6379 -0.0573 0.7680
vn 0.6392 -0.0126 0.7690
vn 0.6393 -0.0107 0.7689
vn 0.5761 -0.0621 0.8150
vn 0.5355 -0.0220 0.8442
vn 0.5364 -0.0552 0.8421
vn 0.5312 -0.0636 0.8448
vn 0.4770 -0.0518 0.8773
vn 0.4561 -0.0496 0.8885
vn 0.4261 -0.1014 0.8990
vn 0.4099 -0.1049 0.9061
vn 0.4083 -0.0964 0.9077
vn 0.4016 -0.1116 0.9090
vn 0.4009 -0.1361 0.9060
vn 0.4130 -0.1273 0.9018
vn 0.4257 -0.1533 0.8918
vn -0.4555 -0.1674 0.8743
vn -0.4627 -0.1750 0.8691
vn -0.4859 -0.1757 0.8562
vn -0.5086 -0.1748 0.8431
vn -0.5583 -0.1524 0.8155
vn -0.5619 -0.1549 0.8126
vn -0.4391 -0.1732 0.8816
vn -0.4591 -0.1585 0.8742
vn -0.4865 -0.1293 0.8641
vn -0.5241 -0.1277 0.8420
vn -0.5572 -0.1280 0.8204
vn -0.5897 -0.1458 0.7943
vn -0.4304 -0.1317 0.8930
vn -0.4677 -0.1056 0.8775
vn -0.5006 -0.1285 0.8561
vn -0.5245 -0.1275 0.8418
vn -0.5506 -0.1264 0.8251
vn -0.6058 -0.1082 0.7882
vn -0.4427 -0.1005 0.8910
vn -0.4795 -0.0964 0.8722
vn -0.4877 -0.1144 0.8655
vn -0.5256 -0.0914 0.8458
vn -0.5607 -0.0648 0.8255
vn -0.6035 -0.1138 0.7892
vn -0.4454 -0.1045 0.8892
vn -0.4697 -0.1030 0.8768
vn -0.4913 -0.1163 0.8632
vn -0.5339 -0.0688 0.8428
vn -0.5728 -0.0629 0.8173
vn -0.5792 -0.0809 0.8111
vn -0.4474 -0.0928 0.8895
vn -0.4613 -0.0713 0.8844
vn -0.5178 -0.0470 0.8542
vn -0.5327 -0.0512 0.8447
vn -0.5732 -0.0624 0.8171
vn -0.5712 -0.0547 0.8190
vn -0.4264 -0.1978 0.8827
vn -0.4455 -0.1683 0.8793
vn -0.4760 -0.1825 0.8603
vn -0.4853 -0.1807 0.8555
vn -0.5122 -0.1796 0.8399
vn -0.5376 -0.1881 0.8219
vn -0.5667 -0.1564 0.8089
vn -0.6049 -0.1908 0.7731
vn -0.6225 -0.1221 0.7731
vn -0.6117 -0.1149 0.7827
vn -0.6200 -0.1140 0.7763
vn -0.6365 -0.0808 0.7671
vn -0.6478 -0.0799 0.7576
vn -0.6403 -0.0149 0.7680
vn -0.6394 -0.0109 0.7688
vn -0.5751 -0.0602 0.8159
vn -0.5624 -0.0673 0.8241
vn -0.5175 -0.0253 0.8553
vn -0.5312 -0.0636 0.8448
vn -0.4770 -0.0518 0.8773
vn -0.4561 -0.0496 0.8885
vn -0.4261 -0.1014 0.8990
vn -0.4099 -0.1049 0.9061
vn -0.4083 -0.0964 0.9077
vn -0.4016 -0.1116 0.9090
vn -0.4107 -0.1574 0.8981
vn -0.4256 -0.1536 0.8918
vn -0.4250 -0.1520 0.8923
vn 0.4555 -0.1674 0.8743
vn 0.4627 -0.1750 0.8691
vn 0.4859 -0.1757 0.8562
vn 0.5237 -0.1501 0.8386
vn 0.5574 -0.1539 0.8158
vn 0.5882 -0.1049 0.8019
vn 0.4391 -0.1732 0.8816
vn 0.4591 -0.1585 0.8742
vn 0.4865 -0.1293 0.8641
vn 0.5245 -0.1270 0.8419
vn 0.5504 -0.1407 0.8229
vn 0.6059 -0.1132 0.7875
vn 0.4304 -0.1317 0.8930
vn 0.4677 -0.1056 0.8775
vn 0.5006 -0.1285 0.8561
vn 0.5249 -0.1269 0.8417
vn 0.5603 -0.1077 0.8213
vn 0.6035 -0.1132 0.7893
vn 0.4452 -0.0956 0.8903
vn 0.4697 -0.1146 0.8754
vn 0.4914 -0.1077 0.8642
vn 0.5256 -0.0914 0.8458
vn 0.5607 -0.0648 0.8255
vn 0.6035 -0.1138 0.7892
vn 0.4478 -0.1000 0.8885
vn 0.4629 -0.1152 0.8789
vn 0.5183 -0.0670 0.8526
vn 0.5339 -0.0688 0.8428
vn 0.5728 -0.0629 0.8173
vn 0.5792 -0.0809 0.8111
vn 0.4593 -0.0709 0.8855
vn 0.4763 -0.0441 0.8782
vn 0.5296 -0.0250 0.8479
vn 0.5327 -0.0512 0.8447
vn 0.5732 -0.0624 0.8171
vn 0.5712 -0.0547 0.8190
vn 0.4264 -0.1978 0.8827
vn 0.4455 -0.1683 0.8793
vn 0.4760 -0.1825 0.8603
vn 0.4853 -0.1807 0.8555
vn 0.5083 -0.1855 0.8409
vn 0.5583 -0.1541 0.8152
vn 0.5627 -0.1635 0.8103
vn 0.6261 -0.1511 0.7650
vn 0.6129 -0.1417 0.7773
vn 0.6198 -0.0970 0.7787
vn 0.6365 -0.0747 0.7677
vn 0.6365 -0.0808 0.7671
vn 0.6478 -0.0799 0.7576
vn 0.6403 -0.0149 0.7680
vn 0.6394 -0.0109 0.7688
vn 0.5751 -0.0602 0.8159
vn 0.5624 -0.0673 0.8241
vn 0.5175 -0.0253 0.8553
vn 0.5361 -0.0552 0.8424
vn 0.4732 -0.0585 0.8790
vn 0.4577 -0.0466 0.8879
vn 0.4548 -0.0488 0.8893
vn 0.4226 -0.0814 0.9027
vn 0.4092 -0.0948 0.9075
vn 0.4084 -0.0981 0.9075
vn 0.4107 -0.1574 0.8981
vn 0.4256 -0.1536 0.8918
vn 0.4250 -0.1520 0.8923
vn -0.4428 -0.1430 0.8851
vn -0.4582 -0.1667 0.8731
vn -0.4839 -0.1720 0.8581
vn -0.5237 -0.1501 0.8386
vn -0.5574 -0.1539 0.8158
vn -0.5882 -0.1049 0.8019
vn -0.4289 -0.1526 0.8904
vn -0.4641 -0.1683 0.8697
vn -0.4995 -0.1539 0.8526
vn -0.5245 -0.1270 0.8419
vn -0.5504 -0.1407 0.8229
vn -0.6059 -0.1132 0.7875
vn -0.4410 -0.1536 0.8842
vn -0.4788 -0.1271 0.8687
vn -0.4879 -0.1043 0.8666
vn -0.5249 -0.1269 0.8417
vn -0.5603 -0.1077 0.8213
vn -0.6035 -0.1132 0.7893
vn -0.4452 -0.0956 0.8903
vn -0.4697 -0.1146 0.8754
vn -0.4914 -0.1077 0.8642
vn -0.5332 -0.1059 0.8393
vn -0.5721 -0.0876 0.8155
vn -0.5798 -0.0625 0.8123
vn -0.4478 -0.1000 0.8885
vn -0.4629 -0.1152 0.8789
vn -0.5183 -0.0670 0.8526
vn -0.5325 -0.0663 0.8438
vn -0.5731 -0.0636 0.8170
vn -0.5706 -0.0634 0.8188
vn -0.4593 -0.0709 0.8855
vn -0.4763 -0.0441 0.8782
vn -0.5296 -0.0250 0.8479
vn -0.5175 -0.0256 0.8553
vn -0.5641 -0.0459 0.8244
vn -0.5749 -0.0618 0.8159
vn -0.4180 -0.1815 0.8901
vn -0.4527 -0.1816 0.8730
vn -0.4645 -0.1621 0.8706
vn -0.4854 -0.1809 0.8553
vn -0.5083 -0.1855 0.8409
vn -0.5583 -0.1541 0.8152
vn -0.5627 -0.1635 0.8103
vn -0.6261 -0.1511 0.7650
vn -0.6129 -0.1417 0.7773
vn -0.6198 -0.0970 0.7787
vn -0.6365 -0.0747 0.7677
vn -0.6466 -0.1058 0.7555
vn -0.6379 -0.0573 0.7680
vn -0.6392 -0.0126 0.7690
vn -0.6393 -0.0107 0.7689
vn -0.5761 -0.0621 0.8150
vn -0.5355 -0.0220 0.8442
vn -0.5364 -0.0552 0.8421
vn -0.5361 -0.0552 0.8424
vn -0.4732 -0.0585 0.8790
vn -0.4577 -0.0466 0.8879
vn -0.4548 -0.0488 0.8893
vn -0.4226 -0.0814 0.9027
vn -0.4092 -0.0948 0.9075
vn -0.4084 -0.0981 0.9075
vn -0.4009 -0.1361 0.9060
vn -0.4130 -0.1273 0.9018
vn -0.4257 -0.1533 0.8918
s off
f 33/1/1 41/2/1 40/3/1
f 34/4/2 42/5/2 41/2/2
f 35/6/3 43/7/3 42/5/3
f 37/8/4 43/7/4 36/9/4
f 38/10/5 44/11/5 37/8/5
f 39/12/6 45/13/6 38/10/6
f 40/3/7 48/14/7 47/15/7
f 41/2/8 49/16/8 48/14/8
f 42/5/9 50/17/9 49/16/9
f 44/11/10 50/17/10 43/7/10
f 45/13/11 51/18/11 44/11/11
f 46/19/12 52/20/12 45/13/12
f 47/15/13 55/21/13 54/22/13
f 48/14/14 56/23/14 55/21/14
f 49/16/15 57/24/15 56/23/15
f 51/18/16 57/24/16 50/17/16
f 52/20/17 58/25/17 51/18/17
f 53/26/18 59/27/18 52/20/18
f 55/21/19 61/28/19 54/22/19
f 56/23/20 62/29/20 55/21/20
f 57/24/21 63/30/21 56/23/21
f 57/24/22 65/31/22 64/32/22
f 58/25/23 66/33/23 65/31/23
f 59/27/24 67/34/24 66/33/24
f 62/29/25 68/35/25 61/28/25
f 63/30/26 69/36/26 62/29/26
f 64/32/27 70/37/27 63/30/27
f 64/32/28 72/38/28 71/39/28
f 65/31/29 73/40/29 72/38/29
f 66/33/30 74/41/30 73/40/30
f 69/36/31 75/42/31 68/35/31
f 70/37/32 76/43/32 69/36/32
f 71/39/33 77/44/33 70/37/33
f 71/39/34 79/45/34 78/46/34
f 72/38/35 80/47/35 79/45/35
f 73/40/36 81/48/36 80/47/36
f 1/49/37 33/1/37 11/50/37
f 12/51/38 34/4/38 33/1/38
f 13/52/39 35/6/39 34/4/39
f 14/53/40 36/9/40 35/6/40
f 16/54/41 36/9/41 15/55/41
f 17/56/42 37/8/42 16/54/42
f 18/57/43 38/10/43 17/56/43
f 2/58/44 39/12/44 18/57/44
f 19/59/45 46/19/45 39/12/45
f 20/60/46 53/26/46 46/19/46
f 21/61/47 60/62/47 53/26/47
f 60/62/48 23/63/48 67/34/48
f 67/34/49 24/64/49 74/41/49
f 74/41/50 25/65/50 81/48/50
f 81/48/51 4/66/51 26/67/51
f 80/47/52 26/67/52 27/68/52
f 79/45/53 27/68/53 28/69/53
f 78/46/54 28/69/54 29/70/54
f 78/46/55 30/71/55 77/44/55
f 77/44/56 31/72/56 76/43/56
f 76/43/57 32/73/57 75/42/57
f 75/42/58 3/74/58 5/75/58
f 68/35/59 5/75/59 6/76/59
f 61/28/60 6/76/60 7/77/60
f 54/22/61 7/77/61 8/78/61
f 9/79/62 54/22/62 8/78/62
f 10/80/63 47/15/63 9/79/63
f 11/50/64 40/3/64 10/80/64
f 114/81/65 122/82/65 115/83/65
f 115/83/66 123/84/66 116/85/66
f 116/85/67 124/86/67 117/87/67
f 124/86/68 118/88/68 117/87/68
f 125/89/69 119/90/69 118/88/69
f 126/91/70 120/92/70 119/90/70
f 121/93/71 129/94/71 122/82/71
f 122/82/72 130/95/72 123/84/72
f 123/84/73 131/96/73 124/86/73
f 131/96/74 125/89/74 124/86/74
f 132/97/75 126/91/75 125/89/75
f 133/98/76 127/99/76 126/91/76
f 128/100/77 136/101/77 129/94/77
f 129/94/78 137/102/78 130/95/78
f 130/95/79 138/103/79 131/96/79
f 138/103/80 132/97/80 131/96/80
f 139/104/81 133/98/81 132/97/81
f 140/105/82 134/106/82 133/98/82
f 142/107/83 136/101/83 135/108/83
f 143/109/84 137/102/84 136/101/84
f 144/110/85 138/103/85 137/102/85
f 138/103/86 146/111/86 139/104/86
f 139/104/87 147/112/87 140/105/87
f 140/105/88 148/113/88 141/114/88
f 149/115/89 143/109/89 142/107/89
f 150/116/90 144/110/90 143/109/90
f 151/117/91 145/118/91 144/110/91
f 145/118/92 153/119/92 146/111/92
f 146/111/93 154/120/93 147/112/93
f 147/112/94 155/121/94 148/113/94
f 156/122/95 150/116/95 149/115/95
f 157/123/96 151/117/96 150/116/96
f 158/124/97 152/125/97 151/117/97
f 152/125/98 160/126/98 153/119/98
f 153/119/99 161/127/99 154/120/99
f 154/120/100 162/128/100 155/121/100
f 82/129/101 114/81/101 93/130/101
f 93/130/102 115/83/102 94/131/102
f 94/131/103 116/85/103 95/132/103
f 95/132/104 117/87/104 96/133/104
f 117/87/105 97/134/105 96/133/105
f 118/88/106 98/135/106 97/134/106
f 119/90/107 99/136/107 98/135/107
f 120/92/108 83/137/108 99/136/108
f 127/99/109 100/138/109 120/92/109
f 134/106/110 101/139/110 127/99/110
f 141/114/111 102/140/111 134/106/111
f 141/114/112 104/141/112 103/142/112
f 148/113/113 105/143/113 104/141/113
f 155/121/114 106/144/114 105/143/114
f 162/128/115 85/145/115 106/144/115
f 161/127/116 107/146/116 162/128/116
f 160/126/117 108/147/117 161/127/117
f 159/148/118 109/149/118 160/126/118
f 111/150/119 159/148/119 158/124/119
f 112/151/120 158/124/120 157/123/120
f 113/152/121 157/123/121 156/122/121
f 84/153/122 156/122/122 86/154/122
f 86/154/123 149/115/123 87/155/123
f 87/155/124 142/107/124 88/156/124
f 88/156/125 135/108/125 89/157/125
f 90/158/126 135/108/126 128/100/126
f 91/159/127 128/100/127 121/93/127
f 92/160/128 121/93/128 114/81/128
f 33/1/129 34/4/129 41/2/129
f 34/4/130 35/6/130 42/5/130
f 35/6/131 36/9/131 43/7/131
f 37/8/132 44/11/132 43/7/132
f 38/10/133 45/13/133 44/11/133
f 39/12/134 46/19/134 45/13/134
f 40/3/135 41/2/135 48/14/135
f 41/2/136 42/5/136 49/16/136
f 42/5/137 43/7/137 50/17/137
f 44/11/138 51/18/138 50/17/138
f 45/13/139 52/20/139 51/18/139
f 46/19/140 53/26/140 52/20/140
f 47/15/141 48/14/141 55/21/141
f 48/14/142 49/16/142 56/23/142
f 49/16/143 50/17/143 57/24/143
f 51/18/144 58/25/144 57/24/144
f 52/20/145 59/27/145 58/25/145
f 53/26/146 60/62/146 59/27/146
f 55/21/147 62/29/147 61/28/147
f 56/23/148 63/30/148 62/29/148
f 57/24/149 64/32/149 63/30/149
f 57/24/150 58/25/150 65/31/150
f 58/25/151 59/27/151 66/33/151
f 59/27/152 60/62/152 67/34/152
f 62/29/153 69/36/153 68/35/153
f 63/30/154 70/37/154 69/36/154
f 64/32/155 71/39/155 70/37/155
f 64/32/156 65/31/156 72/38/156
f 65/31/157 66/33/157 73/40/157
f 66/33/158 67/34/158 74/41/158
f 69/36/159 76/43/159 75/42/159
f 70/37/160 77/44/160 76/43/160
f 71/39/161 78/46/161 77/44/161
f 71/39/162 72/38/162 79/45/162
f 72/38/163 73/40/163 80/47/163
f 73/40/164 74/41/164 81/48/164
f 1/49/165 12/51/165 33/1/165
f 12/51/166 13/52/166 34/4/166
f 13/52/167 14/53/167 35/6/167
f 14/53/168 15/55/168 36/9/168
f 16/54/169 37/8/169 36/9/169
f 17/56/170 38/10/170 37/8/170
f 18/57/171 39/12/171 38/10/171
f 2/58/172 19/59/172 39/12/172
f 19/59/173 20/60/173 46/19/173
f 20/60/174 21/61/174 53/26/174
f 21/61/175 22/161/175 60/62/175
f 60/62/176 22/161/176 23/63/176
f 67/34/177 23/63/177 24/64/177
f 74/41/178 24/64/178 25/65/178
f 81/48/179 25/65/179 4/66/179
f 80/47/180 81/48/180 26/67/180
f 79/45/181 80/47/181 27/68/181
f 78/46/182 79/45/182 28/69/182
f 78/46/183 29/70/183 30/71/183
f 77/44/184 30/71/184 31/72/184
f 76/43/185 31/72/185 32/73/185
f 75/42/186 32/73/186 3/74/186
f 68/35/187 75/42/187 5/75/187
f 61/28/188 68/35/188 6/76/188
f 54/22/189 61/28/189 7/77/189
f 9/79/190 47/15/190 54/22/190
f 10/80/191 40/3/191 47/15/191
f 11/50/192 33/1/192 40/3/192
f 114/81/193 121/93/193 122/82/193
f 115/83/194 122/82/194 123/84/194
f 116/85/195 123/84/195 124/86/195
f 124/86/196 125/89/196 118/88/196
f 125/89/197 126/91/197 119/90/197
f 126/91/198 127/99/198 120/92/198
f 121/93/199 128/100/199 129/94/199
f 122/82/200 129/94/200 130/95/200
f 123/84/201 130/95/201 131/96/201
f 131/96/202 132/97/202 125/89/202
f 132/97/203 133/98/203 126/91/203
f 133/98/204 134/106/204 127/99/204
f 128/100/205 135/108/205 136/101/205
f 129/94/206 136/101/206 137/102/206
f 130/95/207 137/102/207 138/103/207
f 138/103/208 139/104/208 132/97/208
f 139/104/209 140/105/209 133/98/209
f 140/105/210 141/114/210 134/106/210
f 142/107/211 143/109/211 136/101/211
f 143/109/212 144/110/212 137/102/212
f 144/110/213 145/118/213 138/103/213
f 138/103/214 145/118/214 146/111/214
f 139/104/215 146/111/215 147/112/215
f 140/105/216 147/112/216 148/113/216
f 149/115/217 150/116/217 143/109/217
f 150/116/218 151/117/218 144/110/218
f 151/117/219 152/125/219 145/118/219
f 145/118/220 152/125/220 153/119/220
f 146/111/221 153/119/221 154/120/221
f 147/112/222 154/120/222 155/121/222
f 156/122/223 157/123/223 150/116/223
f 157/123/224 158/124/224 151/117/224
f 158/124/225 159/148/225 152/125/225
f 152/125/226 159/148/226 160/126/226
f 153/119/227 160/126/227 161/127/227
f 154/120/228 161/127/228 162/128/228
f 82/129/229 92/160/229 114/81/229
f 93/130/230 114/81/230 115/83/230
f 94/131/231 115/83/231 116/85/231
f 95/132/232 116/85/232 117/87/232
f 117/87/233 118/88/233 97/134/233
f 118/88/234 119/90/234 98/135/234
f 119/90/235 120/92/235 99/136/235
f 120/92/236 100/138/236 83/137/236
f 127/99/237 101/139/237 100/138/237
f 134/106/238 102/140/238 101/139/238
f 141/114/239 103/142/239 102/140/239
f 141/114/240 148/113/240 104/141/240
f 148/113/241 155/121/241 105/143/241
f 155/121/242 162/128/242 106/144/242
f 162/128/243 107/146/243 85/145/243
f 161/127/244 108/147/244 107/146/244
f 160/126/245 109/149/245 108/147/245
f 159/148/246 110/162/246 109/149/246
f 111/150/247 110/162/247 159/148/247
f 112/151/248 111/150/248 158/124/248
f 113/152/249 112/151/249 157/123/249
f 84/153/250 113/152/250 156/122/250
f 86/154/251 156/122/251 149/115/251
f 87/155/252 149/115/252 142/107/252
f 88/156/253 142/107/253 135/108/253
f 90/158/254 89/157/254 135/108/254
f 91/159/255 90/158/255 128/100/255
f 92/160/256 91/159/256 121/93/256
