# Blender v2.93.4 OBJ File: 'KirbyV2.blend'
# www.blender.org
o Eyes_Black_Plane.001
v 0.154237 0.049016 0.921513
v 0.333939 0.040547 0.873193
v 0.137647 0.508870 0.779903
v 0.317002 0.500327 0.731047
v 0.128361 0.463468 0.808874
v 0.122564 0.411375 0.837883
v 0.120259 0.352640 0.864416
v 0.121144 0.289770 0.887116
v 0.124782 0.225174 0.903957
v 0.131498 0.161850 0.915188
v 0.141543 0.102746 0.920920
v 0.172322 0.009545 0.918246
v 0.192804 -0.020728 0.912721
v 0.215912 -0.039336 0.906655
v 0.240574 -0.046303 0.900146
v 0.265652 -0.041687 0.893146
v 0.290342 -0.025181 0.886789
v 0.313154 0.002766 0.879802
v 0.349414 0.093136 0.865650
v 0.360553 0.151631 0.854939
v 0.366044 0.214278 0.839709
v 0.366070 0.278347 0.820836
v 0.360815 0.341250 0.799100
v 0.350597 0.400545 0.775967
v 0.335588 0.453643 0.752604
v 0.294060 0.534164 0.717154
v 0.269125 0.559367 0.707013
v 0.243427 0.575014 0.703898
v 0.217985 0.581055 0.707515
v 0.193809 0.577410 0.717491
v 0.171881 0.563995 0.733456
v 0.153275 0.540784 0.755241
v 0.166333 0.078887 0.918324
v 0.191774 0.058987 0.914289
v 0.218161 0.045818 0.908844
v 0.245148 0.040414 0.902120
v 0.272222 0.043251 0.894274
v 0.298889 0.053991 0.885716
v 0.324590 0.071518 0.876160
v 0.160657 0.148932 0.913118
v 0.189673 0.137473 0.909571
v 0.218759 0.129244 0.904456
v 0.247937 0.125546 0.898154
v 0.276832 0.126723 0.889662
v 0.305318 0.132348 0.879566
v 0.333193 0.141226 0.867871
v 0.155997 0.219517 0.900978
v 0.186930 0.214259 0.896800
v 0.217530 0.209998 0.890950
v 0.248026 0.207721 0.884153
v 0.278165 0.207530 0.875447
v 0.307885 0.208968 0.864995
v 0.337113 0.211377 0.852813
v 0.152724 0.289531 0.882267
v 0.183975 0.288908 0.876311
v 0.214979 0.287988 0.869446
v 0.245915 0.286951 0.862250
v 0.276290 0.285220 0.853053
v 0.306618 0.283409 0.843685
v 0.336426 0.280963 0.832497
v 0.150899 0.357594 0.857364
v 0.181218 0.361414 0.849282
v 0.211557 0.363735 0.841409
v 0.241714 0.363668 0.833197
v 0.271658 0.360774 0.824695
v 0.301715 0.355889 0.817039
v 0.331350 0.349029 0.808251
v 0.150432 0.422317 0.826866
v 0.178626 0.431566 0.816646
v 0.207044 0.437199 0.806794
v 0.235673 0.438245 0.797860
v 0.264679 0.434474 0.791160
v 0.293512 0.426076 0.785316
v 0.322114 0.414203 0.780368
v 0.151568 0.483187 0.792908
v 0.175739 0.498959 0.778111
v 0.201239 0.508396 0.765549
v 0.227840 0.510762 0.756222
v 0.255166 0.505833 0.750877
v 0.282571 0.493918 0.749157
v 0.309464 0.475840 0.750438
v -0.154237 0.049016 0.921513
v -0.333939 0.040547 0.873193
v -0.137647 0.508870 0.779903
v -0.317002 0.500327 0.731047
v -0.128361 0.463468 0.808874
v -0.122564 0.411375 0.837883
v -0.120259 0.352640 0.864416
v -0.121144 0.289770 0.887116
v -0.124782 0.225174 0.903957
v -0.131498 0.161850 0.915188
v -0.141543 0.102746 0.920920
v -0.172322 0.009545 0.918246
v -0.192804 -0.020728 0.912721
v -0.215912 -0.039336 0.906655
v -0.240574 -0.046303 0.900146
v -0.265652 -0.041687 0.893146
v -0.290342 -0.025181 0.886789
v -0.313154 0.002766 0.879802
v -0.349414 0.093136 0.865650
v -0.360553 0.151631 0.854939
v -0.366044 0.214278 0.839709
v -0.366070 0.278347 0.820836
v -0.360815 0.341250 0.799100
v -0.350597 0.400545 0.775967
v -0.335588 0.453643 0.752604
v -0.294060 0.534164 0.717154
v -0.269125 0.559367 0.707013
v -0.243427 0.575014 0.703898
v -0.217985 0.581055 0.707515
v -0.193809 0.577410 0.717491
v -0.171881 0.563995 0.733456
v -0.153275 0.540784 0.755241
v -0.166333 0.078887 0.918324
v -0.191774 0.058987 0.914289
v -0.218161 0.045818 0.908844
v -0.245148 0.040414 0.902120
v -0.272222 0.043251 0.894274
v -0.298889 0.053991 0.885716
v -0.324590 0.071518 0.876160
v -0.160657 0.148932 0.913118
v -0.189673 0.137473 0.909571
v -0.218759 0.129244 0.904456
v -0.247937 0.125546 0.898154
v -0.276832 0.126723 0.889662
v -0.305318 0.132348 0.879566
v -0.333193 0.141226 0.867871
v -0.155997 0.219517 0.900978
v -0.186930 0.214259 0.896800
v -0.217530 0.209998 0.890950
v -0.248026 0.207721 0.884153
v -0.278165 0.207530 0.875447
v -0.307885 0.208968 0.864995
v -0.337113 0.211377 0.852813
v -0.152724 0.289531 0.882267
v -0.183975 0.288908 0.876311
v -0.214979 0.287988 0.869446
v -0.245915 0.286951 0.862250
v -0.276290 0.285220 0.853053
v -0.306618 0.283409 0.843685
v -0.336426 0.280963 0.832497
v -0.150899 0.357594 0.857364
v -0.181218 0.361414 0.849282
v -0.211557 0.363735 0.841409
v -0.241714 0.363668 0.833197
v -0.271658 0.360774 0.824695
v -0.301715 0.355889 0.817039
v -0.331350 0.349029 0.808251
v -0.150432 0.422317 0.826866
v -0.178626 0.431566 0.816646
v -0.207044 0.437199 0.806794
v -0.235673 0.438245 0.797860
v -0.264679 0.434474 0.791160
v -0.293512 0.426076 0.785316
v -0.322114 0.414203 0.780368
v -0.151568 0.483187 0.792908
v -0.175739 0.498959 0.778111
v -0.201239 0.508396 0.765549
v -0.227840 0.510762 0.756222
v -0.255166 0.505833 0.750877
v -0.282571 0.493918 0.749157
v -0.309464 0.475840 0.750438
vt 0.125000 0.125000
vt 0.250000 0.250000
vt 0.125000 0.250000
vt 0.250000 0.125000
vt 0.375000 0.250000
vt 0.375000 0.125000
vt 0.500000 0.250000
vt 0.625000 0.125000
vt 0.500000 0.125000
vt 0.750000 0.125000
vt 0.625000 0.250000
vt 0.875000 0.125000
vt 0.750000 0.250000
vt 0.250000 0.375000
vt 0.125000 0.375000
vt 0.375000 0.375000
vt 0.500000 0.375000
vt 0.625000 0.375000
vt 0.875000 0.250000
vt 0.750000 0.375000
vt 0.250000 0.500000
vt 0.125000 0.500000
vt 0.375000 0.500000
vt 0.500000 0.500000
vt 0.625000 0.500000
vt 0.875000 0.375000
vt 0.750000 0.500000
vt 0.125000 0.625000
vt 0.250000 0.625000
vt 0.375000 0.625000
vt 0.625000 0.625000
vt 0.500000 0.625000
vt 0.750000 0.625000
vt 0.875000 0.625000
vt 0.125000 0.750000
vt 0.250000 0.750000
vt 0.375000 0.750000
vt 0.625000 0.750000
vt 0.500000 0.750000
vt 0.750000 0.750000
vt 0.875000 0.750000
vt 0.125000 0.875000
vt 0.250000 0.875000
vt 0.375000 0.875000
vt 0.625000 0.875000
vt 0.500000 0.875000
vt 0.750000 0.875000
vt 0.875000 0.875000
vt 0.000000 0.000000
vt 0.000000 0.125000
vt 0.125000 0.000000
vt 0.250000 0.000000
vt 0.375000 0.000000
vt 0.625000 0.000000
vt 0.500000 0.000000
vt 0.750000 0.000000
vt 0.875000 0.000000
vt 1.000000 0.000000
vt 1.000000 0.125000
vt 1.000000 0.250000
vt 1.000000 0.375000
vt 0.875000 0.500000
vt 1.000000 0.625000
vt 1.000000 0.750000
vt 1.000000 0.875000
vt 1.000000 1.000000
vt 0.875000 1.000000
vt 0.750000 1.000000
vt 0.625000 1.000000
vt 0.500000 1.000000
vt 0.375000 1.000000
vt 0.250000 1.000000
vt 0.125000 1.000000
vt 0.000000 1.000000
vt 0.000000 0.875000
vt 0.000000 0.750000
vt 0.000000 0.625000
vt 0.000000 0.500000
vt 0.000000 0.375000
vt 0.000000 0.250000
vt 0.125000 0.125000
vt 0.250000 0.250000
vt 0.250000 0.125000
vt 0.375000 0.250000
vt 0.375000 0.125000
vt 0.500000 0.250000
vt 0.500000 0.125000
vt 0.625000 0.125000
vt 0.625000 0.250000
vt 0.750000 0.125000
vt 0.750000 0.250000
vt 0.875000 0.125000
vt 0.125000 0.250000
vt 0.250000 0.375000
vt 0.375000 0.375000
vt 0.500000 0.375000
vt 0.625000 0.375000
vt 0.750000 0.375000
vt 0.875000 0.250000
vt 0.125000 0.375000
vt 0.250000 0.500000
vt 0.375000 0.500000
vt 0.500000 0.500000
vt 0.625000 0.500000
vt 0.750000 0.500000
vt 0.875000 0.375000
vt 0.125000 0.625000
vt 0.125000 0.500000
vt 0.250000 0.625000
vt 0.375000 0.625000
vt 0.625000 0.625000
vt 0.750000 0.625000
vt 0.875000 0.625000
vt 0.875000 0.500000
vt 0.125000 0.750000
vt 0.250000 0.750000
vt 0.375000 0.750000
vt 0.500000 0.625000
vt 0.625000 0.750000
vt 0.750000 0.750000
vt 0.875000 0.750000
vt 0.125000 0.875000
vt 0.250000 0.875000
vt 0.375000 0.875000
vt 0.500000 0.750000
vt 0.625000 0.875000
vt 0.750000 0.875000
vt 0.875000 0.875000
vt 0.000000 0.000000
vt 0.125000 0.000000
vt 0.250000 0.000000
vt 0.375000 0.000000
vt 0.500000 0.000000
vt 0.625000 0.000000
vt 0.750000 0.000000
vt 0.875000 0.000000
vt 1.000000 0.000000
vt 1.000000 0.125000
vt 1.000000 0.250000
vt 1.000000 0.375000
vt 1.000000 0.625000
vt 1.000000 0.500000
vt 1.000000 0.750000
vt 1.000000 0.875000
vt 1.000000 1.000000
vt 0.875000 1.000000
vt 0.750000 1.000000
vt 0.500000 0.875000
vt 0.625000 1.000000
vt 0.375000 1.000000
vt 0.250000 1.000000
vt 0.125000 1.000000
vt 0.000000 1.000000
vt 0.000000 0.875000
vt 0.000000 0.750000
vt 0.000000 0.625000
vt 0.000000 0.500000
vt 0.000000 0.375000
vt 0.000000 0.250000
vt 0.000000 0.125000
vt 1.000000 0.500000
vt 0.500000 1.000000
vn 0.1541 0.0857 0.9843
vn 0.1904 0.0640 0.9796
vn 0.2169 0.0497 0.9749
vn 0.2747 0.0358 0.9609
vn 0.2919 0.0367 0.9557
vn 0.3191 0.0481 0.9465
vn 0.1613 0.1776 0.9708
vn 0.2076 0.1677 0.9637
vn 0.2262 0.1640 0.9602
vn 0.2722 0.1613 0.9486
vn 0.3015 0.1604 0.9399
vn 0.3364 0.1650 0.9271
vn 0.1857 0.2618 0.9471
vn 0.2159 0.2664 0.9394
vn 0.2268 0.2658 0.9370
vn 0.2693 0.2633 0.9264
vn 0.3077 0.2704 0.9122
vn 0.3526 0.2631 0.8980
vn 0.1825 0.3422 0.9218
vn 0.2125 0.3484 0.9129
vn 0.2235 0.3472 0.9108
vn 0.2869 0.3530 0.8905
vn 0.2844 0.3521 0.8917
vn 0.3393 0.3447 0.8752
vn 0.1840 0.4201 0.8887
vn 0.1978 0.4195 0.8860
vn 0.2386 0.4259 0.8727
vn 0.2559 0.4308 0.8654
vn 0.2960 0.4187 0.8585
vn 0.3215 0.4209 0.8482
vn 0.1560 0.4790 0.8638
vn 0.1961 0.4930 0.8476
vn 0.2411 0.5011 0.8311
vn 0.2524 0.5022 0.8271
vn 0.2692 0.5004 0.8229
vn 0.2875 0.4862 0.8252
vn 0.1475 0.0458 0.9880
vn 0.1668 0.0133 0.9859
vn 0.1940 -0.0168 0.9809
vn 0.2358 -0.0312 0.9713
vn 0.2749 -0.0364 0.9608
vn 0.2702 -0.0337 0.9622
vn 0.3166 -0.0213 0.9483
vn 0.3028 0.0001 0.9530
vn 0.3365 0.0701 0.9391
vn 0.3652 0.1758 0.9142
vn 0.3760 0.2631 0.8885
vn 0.3592 0.3368 0.8703
vn 0.3283 0.4105 0.8507
vn 0.3281 0.4663 0.8216
vn 0.3056 0.5315 0.7900
vn 0.2440 0.5600 0.7918
vn 0.2541 0.5725 0.7796
vn 0.2474 0.5750 0.7798
vn 0.2253 0.5730 0.7880
vn 0.1878 0.5635 0.8045
vn 0.1567 0.5373 0.8287
vn 0.1495 0.5100 0.8471
vn 0.1607 0.4665 0.8698
vn 0.1430 0.4028 0.9041
vn 0.1453 0.3378 0.9299
vn 0.1486 0.2573 0.9548
vn 0.1267 0.1862 0.9743
vn 0.1215 0.1162 0.9858
vn -0.2051 0.0642 0.9766
vn -0.2255 0.0496 0.9730
vn -0.2486 0.0369 0.9679
vn -0.2747 0.0358 0.9609
vn -0.2919 0.0367 0.9557
vn -0.3191 0.0481 0.9465
vn -0.1846 0.1677 0.9684
vn -0.2158 0.1643 0.9625
vn -0.2280 0.1633 0.9599
vn -0.2722 0.1613 0.9486
vn -0.3015 0.1604 0.9399
vn -0.3364 0.1650 0.9271
vn -0.1734 0.2670 0.9479
vn -0.2166 0.2661 0.9393
vn -0.2286 0.2651 0.9368
vn -0.2693 0.2633 0.9264
vn -0.3077 0.2704 0.9122
vn -0.3526 0.2631 0.8980
vn -0.1825 0.3422 0.9218
vn -0.2125 0.3484 0.9129
vn -0.2235 0.3472 0.9108
vn -0.2896 0.3518 0.8901
vn -0.2956 0.3472 0.8900
vn -0.3549 0.3371 0.8720
vn -0.1840 0.4201 0.8887
vn -0.1978 0.4195 0.8860
vn -0.2386 0.4259 0.8728
vn -0.2852 0.4192 0.8619
vn -0.2876 0.4222 0.8597
vn -0.3453 0.4101 0.8442
vn -0.1560 0.4790 0.8638
vn -0.1961 0.4930 0.8476
vn -0.2411 0.5011 0.8311
vn -0.2561 0.5009 0.8268
vn -0.3073 0.4857 0.8183
vn -0.3352 0.4663 0.8187
vn -0.2145 0.0174 0.9766
vn -0.2382 -0.0160 0.9711
vn -0.2303 -0.0311 0.9726
vn -0.2458 -0.0350 0.9687
vn -0.2749 -0.0364 0.9608
vn -0.2702 -0.0337 0.9622
vn -0.3166 -0.0213 0.9483
vn -0.3028 0.0001 0.9530
vn -0.3365 0.0701 0.9391
vn -0.3652 0.1758 0.9142
vn -0.3760 0.2631 0.8885
vn -0.3706 0.3308 0.8679
vn -0.3657 0.3923 0.8440
vn -0.3462 0.4581 0.8187
vn -0.3653 0.5062 0.7812
vn -0.3202 0.5319 0.7839
vn -0.2919 0.5595 0.7757
vn -0.2556 0.5724 0.7791
vn -0.2253 0.5730 0.7880
vn -0.1878 0.5635 0.8045
vn -0.1567 0.5373 0.8287
vn -0.1495 0.5100 0.8471
vn -0.1607 0.4665 0.8698
vn -0.1430 0.4028 0.9041
vn -0.1453 0.3378 0.9299
vn -0.1386 0.2617 0.9551
vn -0.1475 0.1771 0.9731
vn -0.1870 0.0879 0.9784
vn 0.2051 0.0642 0.9766
vn 0.2255 0.0496 0.9730
vn 0.2486 0.0369 0.9679
vn 0.2804 0.0375 0.9592
vn 0.3254 0.0474 0.9444
vn 0.3685 0.0648 0.9274
vn 0.1846 0.1677 0.9684
vn 0.2158 0.1643 0.9625
vn 0.2280 0.1633 0.9599
vn 0.2748 0.1622 0.9477
vn 0.3199 0.1666 0.9327
vn 0.3664 0.1757 0.9137
vn 0.1734 0.2670 0.9479
vn 0.2166 0.2661 0.9393
vn 0.2286 0.2651 0.9368
vn 0.2931 0.2713 0.9168
vn 0.2989 0.2673 0.9161
vn 0.3578 0.2649 0.8954
vn 0.2001 0.3489 0.9155
vn 0.2105 0.3477 0.9137
vn 0.2464 0.3550 0.9018
vn 0.2896 0.3518 0.8901
vn 0.2956 0.3472 0.8900
vn 0.3549 0.3371 0.8720
vn 0.1843 0.4202 0.8885
vn 0.2195 0.4268 0.8773
vn 0.2545 0.4309 0.8658
vn 0.2852 0.4192 0.8619
vn 0.2876 0.4222 0.8597
vn 0.3453 0.4101 0.8442
vn 0.1971 0.4930 0.8474
vn 0.2255 0.5021 0.8349
vn 0.2459 0.5025 0.8289
vn 0.2561 0.5009 0.8268
vn 0.3073 0.4857 0.8183
vn 0.3352 0.4663 0.8187
vn 0.2145 0.0174 0.9766
vn 0.2382 -0.0160 0.9711
vn 0.2303 -0.0311 0.9726
vn 0.2458 -0.0350 0.9687
vn 0.2815 -0.0345 0.9589
vn 0.3131 -0.0209 0.9495
vn 0.3541 -0.0094 0.9352
vn 0.3723 0.0235 0.9278
vn 0.3968 0.0917 0.9133
vn 0.3900 0.1851 0.9020
vn 0.3732 0.2620 0.8900
vn 0.3706 0.3308 0.8679
vn 0.3657 0.3923 0.8440
vn 0.3462 0.4581 0.8187
vn 0.3653 0.5062 0.7812
vn 0.3202 0.5319 0.7839
vn 0.2919 0.5595 0.7757
vn 0.2556 0.5724 0.7791
vn 0.2362 0.5756 0.7829
vn 0.2235 0.5731 0.7884
vn 0.2327 0.5598 0.7952
vn 0.2119 0.5305 0.8208
vn 0.1868 0.4760 0.8594
vn 0.1863 0.4199 0.8882
vn 0.1577 0.3430 0.9260
vn 0.1386 0.2617 0.9551
vn 0.1475 0.1771 0.9731
vn 0.1870 0.0879 0.9784
vn -0.1541 0.0857 0.9843
vn -0.1904 0.0640 0.9796
vn -0.2169 0.0497 0.9749
vn -0.2804 0.0375 0.9592
vn -0.3254 0.0474 0.9444
vn -0.3685 0.0648 0.9274
vn -0.1613 0.1776 0.9708
vn -0.2076 0.1677 0.9637
vn -0.2262 0.1640 0.9602
vn -0.2748 0.1622 0.9477
vn -0.3199 0.1666 0.9327
vn -0.3664 0.1757 0.9137
vn -0.1857 0.2618 0.9471
vn -0.2159 0.2664 0.9394
vn -0.2268 0.2658 0.9370
vn -0.2931 0.2713 0.9168
vn -0.2989 0.2673 0.9161
vn -0.3578 0.2649 0.8954
vn -0.2001 0.3489 0.9155
vn -0.2105 0.3477 0.9137
vn -0.2464 0.3550 0.9018
vn -0.2869 0.3530 0.8905
vn -0.2844 0.3521 0.8917
vn -0.3393 0.3447 0.8752
vn -0.1843 0.4202 0.8885
vn -0.2195 0.4268 0.8773
vn -0.2545 0.4309 0.8658
vn -0.2559 0.4308 0.8654
vn -0.2960 0.4187 0.8585
vn -0.3215 0.4209 0.8482
vn -0.1971 0.4930 0.8474
vn -0.2255 0.5021 0.8349
vn -0.2459 0.5025 0.8289
vn -0.2524 0.5022 0.8271
vn -0.2692 0.5004 0.8229
vn -0.2875 0.4862 0.8252
vn -0.1475 0.0458 0.9880
vn -0.1668 0.0133 0.9859
vn -0.1940 -0.0168 0.9809
vn -0.2358 -0.0312 0.9713
vn -0.2815 -0.0345 0.9589
vn -0.3131 -0.0209 0.9495
vn -0.3541 -0.0094 0.9352
vn -0.3723 0.0235 0.9278
vn -0.3968 0.0917 0.9133
vn -0.3900 0.1851 0.9020
vn -0.3732 0.2620 0.8900
vn -0.3592 0.3368 0.8703
vn -0.3283 0.4105 0.8507
vn -0.3281 0.4663 0.8216
vn -0.3056 0.5315 0.7900
vn -0.2440 0.5600 0.7918
vn -0.2541 0.5725 0.7796
vn -0.2474 0.5750 0.7798
vn -0.2362 0.5756 0.7829
vn -0.2235 0.5731 0.7884
vn -0.2327 0.5598 0.7952
vn -0.2119 0.5305 0.8208
vn -0.1868 0.4760 0.8594
vn -0.1863 0.4199 0.8882
vn -0.1577 0.3430 0.9260
vn -0.1486 0.2573 0.9548
vn -0.1267 0.1862 0.9743
vn -0.1215 0.1162 0.9858
s off
f 33/1/1 41/2/1 40/3/1
f 34/4/2 42/5/2 41/2/2
f 35/6/3 43/7/3 42/5/3
f 37/8/4 43/7/4 36/9/4
f 38/10/5 44/11/5 37/8/5
f 39/12/6 45/13/6 38/10/6
f 40/3/7 48/14/7 47/15/7
f 41/2/8 49/16/8 48/14/8
f 42/5/9 50/17/9 49/16/9
f 44/11/10 50/17/10 43/7/10
f 45/13/11 51/18/11 44/11/11
f 46/19/12 52/20/12 45/13/12
f 47/15/13 55/21/13 54/22/13
f 48/14/14 56/23/14 55/21/14
f 49/16/15 57/24/15 56/23/15
f 51/18/16 57/24/16 50/17/16
f 52/20/17 58/25/17 51/18/17
f 53/26/18 59/27/18 52/20/18
f 55/21/19 61/28/19 54/22/19
f 56/23/20 62/29/20 55/21/20
f 57/24/21 63/30/21 56/23/21
f 57/24/22 65/31/22 64/32/22
f 58/25/23 66/33/23 65/31/23
f 59/27/24 67/34/24 66/33/24
f 62/29/25 68/35/25 61/28/25
f 63/30/26 69/36/26 62/29/26
f 64/32/27 70/37/27 63/30/27
f 64/32/28 72/38/28 71/39/28
f 65/31/29 73/40/29 72/38/29
f 66/33/30 74/41/30 73/40/30
f 69/36/31 75/42/31 68/35/31
f 70/37/32 76/43/32 69/36/32
f 71/39/33 77/44/33 70/37/33
f 71/39/34 79/45/34 78/46/34
f 72/38/35 80/47/35 79/45/35
f 73/40/36 81/48/36 80/47/36
f 1/49/37 33/1/37 11/50/37
f 12/51/38 34/4/38 33/1/38
f 13/52/39 35/6/39 34/4/39
f 14/53/40 36/9/40 35/6/40
f 16/54/41 36/9/41 15/55/41
f 17/56/42 37/8/42 16/54/42
f 18/57/43 38/10/43 17/56/43
f 2/58/44 39/12/44 18/57/44
f 19/59/45 46/19/45 39/12/45
f 20/60/46 53/26/46 46/19/46
f 21/61/47 60/62/47 53/26/47
f 60/62/48 23/63/48 67/34/48
f 67/34/49 24/64/49 74/41/49
f 74/41/50 25/65/50 81/48/50
f 81/48/51 4/66/51 26/67/51
f 80/47/52 26/67/52 27/68/52
f 79/45/53 27/68/53 28/69/53
f 78/46/54 28/69/54 29/70/54
f 78/46/55 30/71/55 77/44/55
f 77/44/56 31/72/56 76/43/56
f 76/43/57 32/73/57 75/42/57
f 75/42/58 3/74/58 5/75/58
f 68/35/59 5/75/59 6/76/59
f 61/28/60 6/76/60 7/77/60
f 54/22/61 7/77/61 8/78/61
f 9/79/62 54/22/62 8/78/62
f 10/80/63 47/15/63 9/79/63
f 11/50/64 40/3/64 10/80/64
f 114/81/65 122/82/65 115/83/65
f 115/83/66 123/84/66 116/85/66
f 116/85/67 124/86/67 117/87/67
f 124/86/68 118/88/68 117/87/68
f 125/89/69 119/90/69 118/88/69
f 126/91/70 120/92/70 119/90/70
f 121/93/71 129/94/71 122/82/71
f 122/82/72 130/95/72 123/84/72
f 123/84/73 131/96/73 124/86/73
f 131/96/74 125/89/74 124/86/74
f 132/97/75 126/91/75 125/89/75
f 133/98/76 127/99/76 126/91/76
f 128/100/77 136/101/77 129/94/77
f 129/94/78 137/102/78 130/95/78
f 130/95/79 138/103/79 131/96/79
f 138/103/80 132/97/80 131/96/80
f 139/104/81 133/98/81 132/97/81
f 140/105/82 134/106/82 133/98/82
f 142/107/83 136/101/83 135/108/83
f 143/109/84 137/102/84 136/101/84
f 144/110/85 138/103/85 137/102/85
f 138/103/86 146/111/86 139/104/86
f 139/104/87 147/112/87 140/105/87
f 140/105/88 148/113/88 141/114/88
f 149/115/89 143/109/89 142/107/89
f 150/116/90 144/110/90 143/109/90
f 151/117/91 145/118/91 144/110/91
f 145/118/92 153/119/92 146/111/92
f 146/111/93 154/120/93 147/112/93
f 147/112/94 155/121/94 148/113/94
f 156/122/95 150/116/95 149/115/95
f 157/123/96 151/117/96 150/116/96
f 158/124/97 152/125/97 151/117/97
f 152/125/98 160/126/98 153/119/98
f 153/119/99 161/127/99 154/120/99
f 154/120/100 162/128/100 155/121/100
f 82/129/101 114/81/101 93/130/101
f 93/130/102 115/83/102 94/131/102
f 94/131/103 116/85/103 95/132/103
f 95/132/104 117/87/104 96/133/104
f 117/87/105 97/134/105 96/133/105
f 118/88/106 98/135/106 97/134/106
f 119/90/107 99/136/107 98/135/107
f 120/92/108 83/137/108 99/136/108
f 127/99/109 100/138/109 120/92/109
f 134/106/110 101/139/110 127/99/110
f 141/114/111 102/140/111 134/106/111
f 141/114/112 104/141/112 103/142/112
f 148/113/113 105/143/113 104/141/113
f 155/121/114 106/144/114 105/143/114
f 162/128/115 85/145/115 106/144/115
f 161/127/116 107/146/116 162/128/116
f 160/126/117 108/147/117 161/127/117
f 159/148/118 109/149/118 160/126/118
f 111/150/119 159/148/119 158/124/119
f 112/151/120 158/124/120 157/123/120
f 113/152/121 157/123/121 156/122/121
f 84/153/122 156/122/122 86/154/122
f 86/154/123 149/115/123 87/155/123
f 87/155/124 142/107/124 88/156/124
f 88/156/125 135/108/125 89/157/125
f 90/158/126 135/108/126 128/100/126
f 91/159/127 128/100/127 121/93/127
f 92/160/128 121/93/128 114/81/128
f 33/1/129 34/4/129 41/2/129
f 34/4/130 35/6/130 42/5/130
f 35/6/131 36/9/131 43/7/131
f 37/8/132 44/11/132 43/7/132
f 38/10/133 45/13/133 44/11/133
f 39/12/134 46/19/134 45/13/134
f 40/3/135 41/2/135 48/14/135
f 41/2/136 42/5/136 49/16/136
f 42/5/137 43/7/137 50/17/137
f 44/11/138 51/18/138 50/17/138
f 45/13/139 52/20/139 51/18/139
f 46/19/140 53/26/140 52/20/140
f 47/15/141 48/14/141 55/21/141
f 48/14/142 49/16/142 56/23/142
f 49/16/143 50/17/143 57/24/143
f 51/18/144 58/25/144 57/24/144
f 52/20/145 59/27/145 58/25/145
f 53/26/146 60/62/146 59/27/146
f 55/21/147 62/29/147 61/28/147
f 56/23/148 63/30/148 62/29/148
f 57/24/149 64/32/149 63/30/149
f 57/24/150 58/25/150 65/31/150
f 58/25/151 59/27/151 66/33/151
f 59/27/152 60/62/152 67/34/152
f 62/29/153 69/36/153 68/35/153
f 63/30/154 70/37/154 69/36/154
f 64/32/155 71/39/155 70/37/155
f 64/32/156 65/31/156 72/38/156
f 65/31/157 66/33/157 73/40/157
f 66/33/158 67/34/158 74/41/158
f 69/36/159 76/43/159 75/42/159
f 70/37/160 77/44/160 76/43/160
f 71/39/161 78/46/161 77/44/161
f 71/39/162 72/38/162 79/45/162
f 72/38/163 73/40/163 80/47/163
f 73/40/164 74/41/164 81/48/164
f 1/49/165 12/51/165 33/1/165
f 12/51/166 13/52/166 34/4/166
f 13/52/167 14/53/167 35/6/167
f 14/53/168 15/55/168 36/9/168
f 16/54/169 37/8/169 36/9/169
f 17/56/170 38/10/170 37/8/170
f 18/57/171 39/12/171 38/10/171
f 2/58/172 19/59/172 39/12/172
f 19/59/173 20/60/173 46/19/173
f 20/60/174 21/61/174 53/26/174
f 21/61/175 22/161/175 60/62/175
f 60/62/176 22/161/176 23/63/176
f 67/34/177 23/63/177 24/64/177
f 74/41/178 24/64/178 25/65/178
f 81/48/179 25/65/179 4/66/179
f 80/47/180 81/48/180 26/67/180
f 79/45/181 80/47/181 27/68/181
f 78/46/182 79/45/182 28/69/182
f 78/46/183 29/70/183 30/71/183
f 77/44/184 30/71/184 31/72/184
f 76/43/185 31/72/185 32/73/185
f 75/42/186 32/73/186 3/74/186
f 68/35/187 75/42/187 5/75/187
f 61/28/188 68/35/188 6/76/188
f 54/22/189 61/28/189 7/77/189
f 9/79/190 47/15/190 54/22/190
f 10/80/191 40/3/191 47/15/191
f 11/50/192 33/1/192 40/3/192
f 114/81/193 121/93/193 122/82/193
f 115/83/194 122/82/194 123/84/194
f 116/85/195 123/84/195 124/86/195
f 124/86/196 125/89/196 118/88/196
f 125/89/197 126/91/197 119/90/197
f 126/91/198 127/99/198 120/92/198
f 121/93/199 128/100/199 129/94/199
f 122/82/200 129/94/200 130/95/200
f 123/84/201 130/95/201 131/96/201
f 131/96/202 132/97/202 125/89/202
f 132/97/203 133/98/203 126/91/203
f 133/98/204 134/106/204 127/99/204
f 128/100/205 135/108/205 136/101/205
f 129/94/206 136/101/206 137/102/206
f 130/95/207 137/102/207 138/103/207
f 138/103/208 139/104/208 132/97/208
f 139/104/209 140/105/209 133/98/209
f 140/105/210 141/114/210 134/106/210
f 142/107/211 143/109/211 136/101/211
f 143/109/212 144/110/212 137/102/212
f 144/110/213 145/118/213 138/103/213
f 138/103/214 145/118/214 146/111/214
f 139/104/215 146/111/215 147/112/215
f 140/105/216 147/112/216 148/113/216
f 149/115/217 150/116/217 143/109/217
f 150/116/218 151/117/218 144/110/218
f 151/117/219 152/125/219 145/118/219
f 145/118/220 152/125/220 153/119/220
f 146/111/221 153/119/221 154/120/221
f 147/112/222 154/120/222 155/121/222
f 156/122/223 157/123/223 150/116/223
f 157/123/224 158/124/224 151/117/224
f 158/124/225 159/148/225 152/125/225
f 152/125/226 159/148/226 160/126/226
f 153/119/227 160/126/227 161/127/227
f 154/120/228 161/127/228 162/128/228
f 82/129/229 92/160/229 114/81/229
f 93/130/230 114/81/230 115/83/230
f 94/131/231 115/83/231 116/85/231
f 95/132/232 116/85/232 117/87/232
f 117/87/233 118/88/233 97/134/233
f 118/88/234 119/90/234 98/135/234
f 119/90/235 120/92/235 99/136/235
f 120/92/236 100/138/236 83/137/236
f 127/99/237 101/139/237 100/138/237
f 134/106/238 102/140/238 101/139/238
f 141/114/239 103/142/239 102/140/239
f 141/114/240 148/113/240 104/141/240
f 148/113/241 155/121/241 105/143/241
f 155/121/242 162/128/242 106/144/242
f 162/128/243 107/146/243 85/145/243
f 161/127/244 108/147/244 107/146/244
f 160/126/245 109/149/245 108/147/245
f 159/148/246 110/162/246 109/149/246
f 111/150/247 110/162/247 159/148/247
f 112/151/248 111/150/248 158/124/248
f 113/152/249 112/151/249 157/123/249
f 84/153/250 113/152/250 156/122/250
f 86/154/251 156/122/251 149/115/251
f 87/155/252 149/115/252 142/107/252
f 88/156/253 142/107/253 135/108/253
f 90/158/254 89/157/254 135/108/254
f 91/159/255 90/158/255 128/100/255
f 92/160/256 91/159/256 121/93/256
