# Blender v2.93.4 OBJ File: 'KirbyV2.blend'
# www.blender.org
o Mouth.001_Plane.006
v -0.048112 -0.232506 0.910087
v 0.048686 -0.231991 0.907104
v -0.084524 -0.125283 0.926046
v 0.084900 -0.124765 0.921994
v -0.092757 -0.136765 0.924061
v -0.096494 -0.149716 0.921885
v -0.095486 -0.163963 0.919808
v -0.090558 -0.178844 0.917713
v -0.082537 -0.193762 0.915822
v -0.072248 -0.208087 0.914179
v -0.060504 -0.221029 0.912050
v -0.035862 -0.240789 0.908741
v -0.023713 -0.246901 0.907172
v -0.011669 -0.250530 0.906028
v 0.000318 -0.251702 0.905435
v 0.012305 -0.250412 0.905371
v 0.024346 -0.246668 0.905881
v 0.036458 -0.240363 0.906317
v 0.061056 -0.220432 0.908533
v 0.072753 -0.207347 0.909748
v 0.083000 -0.193031 0.911226
v 0.090987 -0.178140 0.913069
v 0.095885 -0.163266 0.915041
v 0.096878 -0.149078 0.917307
v 0.093145 -0.136208 0.919810
v 0.068546 -0.116734 0.924770
v 0.048454 -0.110762 0.927215
v 0.025147 -0.107275 0.929277
v 0.000235 -0.106116 0.930138
v -0.024690 -0.107356 0.930228
v -0.048033 -0.110961 0.929175
v -0.068150 -0.117109 0.927884
v -0.045253 -0.226125 0.911408
v -0.030034 -0.230293 0.910913
v -0.014844 -0.232882 0.910261
v 0.000322 -0.233711 0.909676
v 0.015485 -0.232731 0.909420
v 0.030645 -0.229946 0.908906
v 0.045830 -0.225650 0.908628
v -0.054103 -0.211003 0.914171
v -0.035965 -0.213477 0.914100
v -0.017819 -0.215150 0.914113
v 0.000325 -0.215718 0.913912
v 0.018442 -0.214939 0.912861
v 0.036556 -0.213114 0.911917
v 0.054663 -0.210485 0.911071
v -0.061841 -0.195295 0.916978
v -0.041132 -0.196490 0.917321
v -0.020399 -0.197322 0.917559
v 0.000312 -0.197581 0.917310
v 0.021014 -0.197129 0.916330
v 0.041709 -0.196120 0.915016
v 0.062368 -0.194684 0.913249
v -0.067864 -0.179133 0.919218
v -0.045143 -0.179403 0.920577
v -0.022411 -0.179430 0.920708
v 0.000302 -0.179345 0.920176
v 0.023010 -0.179258 0.919543
v 0.045701 -0.178996 0.917985
v 0.068359 -0.178575 0.915563
v -0.071622 -0.162999 0.921603
v -0.047691 -0.162208 0.923324
v -0.023720 -0.161486 0.923553
v 0.000291 -0.161109 0.923038
v 0.024297 -0.161304 0.922325
v 0.048227 -0.161814 0.920640
v 0.072092 -0.162508 0.918116
v -0.072802 -0.147222 0.924099
v -0.048836 -0.144969 0.925266
v -0.024414 -0.143494 0.926111
v 0.000281 -0.142872 0.925897
v 0.024953 -0.143281 0.924674
v 0.049331 -0.144634 0.922780
v 0.073254 -0.146779 0.920724
v -0.071358 -0.131946 0.926095
v -0.048761 -0.127911 0.927219
v -0.024666 -0.125418 0.928169
v 0.000270 -0.124633 0.928739
v 0.025163 -0.125271 0.926971
v 0.049219 -0.127642 0.924982
v 0.071786 -0.131533 0.922803
vt 0.125000 0.125000
vt 0.250000 0.250000
vt 0.125000 0.250000
vt 0.250000 0.125000
vt 0.375000 0.250000
vt 0.375000 0.125000
vt 0.500000 0.250000
vt 0.625000 0.125000
vt 0.500000 0.125000
vt 0.750000 0.125000
vt 0.625000 0.250000
vt 0.875000 0.125000
vt 0.750000 0.250000
vt 0.250000 0.375000
vt 0.125000 0.375000
vt 0.375000 0.375000
vt 0.500000 0.375000
vt 0.625000 0.375000
vt 0.875000 0.250000
vt 0.750000 0.375000
vt 0.250000 0.500000
vt 0.125000 0.500000
vt 0.375000 0.500000
vt 0.500000 0.500000
vt 0.625000 0.500000
vt 0.875000 0.375000
vt 0.750000 0.500000
vt 0.250000 0.625000
vt 0.125000 0.625000
vt 0.375000 0.625000
vt 0.500000 0.625000
vt 0.625000 0.625000
vt 0.875000 0.500000
vt 0.750000 0.625000
vt 0.125000 0.750000
vt 0.375000 0.750000
vt 0.250000 0.750000
vt 0.500000 0.750000
vt 0.625000 0.750000
vt 0.875000 0.750000
vt 0.750000 0.750000
vt 0.125000 0.875000
vt 0.250000 0.875000
vt 0.375000 0.875000
vt 0.625000 0.875000
vt 0.500000 0.875000
vt 0.750000 0.875000
vt 0.875000 0.875000
vt 0.000000 0.000000
vt 0.000000 0.125000
vt 0.125000 0.000000
vt 0.250000 0.000000
vt 0.375000 0.000000
vt 0.625000 0.000000
vt 0.500000 0.000000
vt 0.750000 0.000000
vt 0.875000 0.000000
vt 1.000000 0.000000
vt 1.000000 0.125000
vt 1.000000 0.250000
vt 1.000000 0.375000
vt 1.000000 0.500000
vt 0.875000 0.625000
vt 1.000000 0.750000
vt 1.000000 0.875000
vt 1.000000 1.000000
vt 0.875000 1.000000
vt 0.750000 1.000000
vt 0.625000 1.000000
vt 0.500000 1.000000
vt 0.375000 1.000000
vt 0.250000 1.000000
vt 0.125000 1.000000
vt 0.000000 1.000000
vt 0.000000 0.875000
vt 0.000000 0.750000
vt 0.000000 0.625000
vt 0.000000 0.500000
vt 0.000000 0.375000
vt 0.000000 0.250000
vt 1.000000 0.625000
vn -0.0225 -0.1924 0.9811
vn -0.0184 -0.1925 0.9811
vn 0.0042 -0.2116 0.9774
vn 0.0313 -0.2291 0.9729
vn 0.0700 -0.2006 0.9772
vn 0.0747 -0.2010 0.9767
vn -0.0272 -0.1888 0.9816
vn -0.0190 -0.1918 0.9812
vn 0.0095 -0.1885 0.9820
vn 0.0648 -0.1837 0.9808
vn 0.0711 -0.2006 0.9771
vn 0.0748 -0.2008 0.9768
vn -0.0608 -0.1592 0.9854
vn -0.0059 -0.1885 0.9821
vn 0.0237 -0.1707 0.9850
vn 0.0501 -0.1550 0.9866
vn 0.0712 -0.1842 0.9803
vn 0.0969 -0.1919 0.9766
vn -0.0655 -0.1608 0.9848
vn -0.0047 -0.1584 0.9874
vn 0.0236 -0.1549 0.9877
vn 0.0281 -0.1550 0.9875
vn 0.0694 -0.1576 0.9851
vn 0.1079 -0.1673 0.9800
vn -0.0655 -0.1607 0.9848
vn -0.0275 -0.1137 0.9931
vn 0.0121 -0.1403 0.9900
vn 0.0463 -0.1547 0.9869
vn 0.0668 -0.1314 0.9891
vn 0.0735 -0.1279 0.9891
vn -0.0364 -0.1261 0.9914
vn -0.0275 -0.1136 0.9931
vn 0.0115 -0.1130 0.9935
vn 0.0661 -0.1536 0.9859
vn 0.0693 -0.1270 0.9895
vn 0.0735 -0.1277 0.9891
vn -0.0231 -0.1928 0.9810
vn -0.0206 -0.1916 0.9813
vn 0.0047 -0.2180 0.9759
vn 0.0250 -0.2289 0.9731
vn 0.0299 -0.2293 0.9729
vn 0.0298 -0.2282 0.9732
vn 0.0707 -0.2033 0.9766
vn 0.0748 -0.2011 0.9767
vn 0.0750 -0.2010 0.9767
vn 0.1036 -0.1852 0.9772
vn 0.1104 -0.1814 0.9772
vn 0.1112 -0.1811 0.9772
vn 0.1247 -0.1712 0.9773
vn 0.1111 -0.1238 0.9861
vn 0.1157 -0.1060 0.9876
vn 0.0825 -0.1270 0.9885
vn 0.0686 -0.1268 0.9896
vn 0.0309 -0.0752 0.9967
vn -0.0192 -0.1132 0.9934
vn -0.0274 -0.1134 0.9932
vn -0.0291 -0.1134 0.9931
vn -0.0663 -0.1236 0.9901
vn -0.0771 -0.1435 0.9866
vn -0.0682 -0.1487 0.9865
vn -0.0676 -0.1610 0.9846
vn -0.0674 -0.1610 0.9847
vn -0.0669 -0.1610 0.9847
vn -0.0298 -0.1885 0.9816
vn -0.0211 -0.1934 0.9809
vn 0.0059 -0.2113 0.9774
vn 0.0250 -0.2291 0.9731
vn 0.0653 -0.1999 0.9776
vn 0.0710 -0.1998 0.9773
vn 0.0748 -0.2009 0.9767
vn -0.0225 -0.1928 0.9810
vn -0.0184 -0.1923 0.9812
vn 0.0051 -0.1841 0.9829
vn 0.0507 -0.1980 0.9789
vn 0.0718 -0.2000 0.9772
vn 0.0963 -0.1819 0.9786
vn -0.0274 -0.1933 0.9808
vn -0.0183 -0.1753 0.9843
vn 0.0100 -0.1552 0.9878
vn 0.0281 -0.1799 0.9833
vn 0.0694 -0.1861 0.9801
vn 0.1079 -0.1805 0.9776
vn -0.0608 -0.1662 0.9842
vn -0.0059 -0.1570 0.9876
vn 0.0237 -0.1550 0.9876
vn 0.0659 -0.1618 0.9846
vn 0.0984 -0.1784 0.9790
vn -0.0376 -0.1143 0.9927
vn -0.0052 -0.1410 0.9900
vn 0.0236 -0.1548 0.9877
vn 0.0284 -0.1302 0.9911
vn 0.0698 -0.1277 0.9894
vn 0.0988 -0.1699 0.9805
vn -0.0291 -0.1136 0.9931
vn -0.0274 -0.1135 0.9932
vn -0.0177 -0.1540 0.9879
vn 0.0470 -0.1269 0.9908
vn 0.0698 -0.1278 0.9893
vn 0.0735 -0.1278 0.9891
vn -0.0227 -0.1929 0.9810
vn 0.0191 -0.2128 0.9769
vn 0.0234 -0.2292 0.9731
vn 0.0257 -0.2293 0.9730
vn 0.0312 -0.2284 0.9731
vn 0.0705 -0.2032 0.9766
vn 0.1033 -0.1830 0.9777
vn 0.1103 -0.1799 0.9775
vn 0.1112 -0.1806 0.9773
vn 0.1210 -0.1695 0.9781
vn 0.1213 -0.1648 0.9788
vn 0.1268 -0.1538 0.9799
vn 0.1154 -0.1054 0.9877
vn 0.0758 -0.1151 0.9905
vn 0.0692 -0.1277 0.9894
vn 0.0671 -0.1268 0.9897
vn 0.0073 -0.0753 0.9971
vn -0.0273 -0.1132 0.9932
vn -0.0579 -0.1071 0.9926
vn -0.0664 -0.1231 0.9902
vn -0.0750 -0.1613 0.9840
vn -0.0674 -0.1612 0.9846
vn -0.0669 -0.1614 0.9846
vn -0.0301 -0.1902 0.9813
vn -0.0231 -0.1927 0.9810
s off
f 33/1/1 41/2/1 40/3/1
f 34/4/2 42/5/2 41/2/2
f 35/6/3 43/7/3 42/5/3
f 37/8/4 43/7/4 36/9/4
f 38/10/5 44/11/5 37/8/5
f 39/12/6 45/13/6 38/10/6
f 40/3/7 48/14/7 47/15/7
f 41/2/8 49/16/8 48/14/8
f 42/5/9 50/17/9 49/16/9
f 44/11/10 50/17/10 43/7/10
f 45/13/11 51/18/11 44/11/11
f 46/19/12 52/20/12 45/13/12
f 47/15/13 55/21/13 54/22/13
f 48/14/14 56/23/14 55/21/14
f 49/16/15 57/24/15 56/23/15
f 51/18/16 57/24/16 50/17/16
f 52/20/17 58/25/17 51/18/17
f 53/26/18 59/27/18 52/20/18
f 54/22/19 62/28/19 61/29/19
f 55/21/20 63/30/20 62/28/20
f 56/23/21 64/31/21 63/30/21
f 58/25/22 64/31/22 57/24/22
f 59/27/23 65/32/23 58/25/23
f 60/33/24 66/34/24 59/27/24
f 62/28/25 68/35/25 61/29/25
f 62/28/26 70/36/26 69/37/26
f 63/30/27 71/38/27 70/36/27
f 64/31/28 72/39/28 71/38/28
f 66/34/29 72/39/29 65/32/29
f 66/34/30 74/40/30 73/41/30
f 69/37/31 75/42/31 68/35/31
f 70/36/32 76/43/32 69/37/32
f 71/38/33 77/44/33 70/36/33
f 71/38/34 79/45/34 78/46/34
f 72/39/35 80/47/35 79/45/35
f 73/41/36 81/48/36 80/47/36
f 1/49/37 33/1/37 11/50/37
f 12/51/38 34/4/38 33/1/38
f 13/52/39 35/6/39 34/4/39
f 14/53/40 36/9/40 35/6/40
f 16/54/41 36/9/41 15/55/41
f 17/56/42 37/8/42 16/54/42
f 18/57/43 38/10/43 17/56/43
f 2/58/44 39/12/44 18/57/44
f 19/59/45 46/19/45 39/12/45
f 20/60/46 53/26/46 46/19/46
f 21/61/47 60/33/47 53/26/47
f 22/62/48 67/63/48 60/33/48
f 67/63/49 24/64/49 74/40/49
f 74/40/50 25/65/50 81/48/50
f 81/48/51 4/66/51 26/67/51
f 80/47/52 26/67/52 27/68/52
f 79/45/53 27/68/53 28/69/53
f 78/46/54 28/69/54 29/70/54
f 78/46/55 30/71/55 77/44/55
f 77/44/56 31/72/56 76/43/56
f 76/43/57 32/73/57 75/42/57
f 75/42/58 3/74/58 5/75/58
f 68/35/59 5/75/59 6/76/59
f 61/29/60 6/76/60 7/77/60
f 8/78/61 61/29/61 7/77/61
f 9/79/62 54/22/62 8/78/62
f 10/80/63 47/15/63 9/79/63
f 11/50/64 40/3/64 10/80/64
f 33/1/65 34/4/65 41/2/65
f 34/4/66 35/6/66 42/5/66
f 35/6/67 36/9/67 43/7/67
f 37/8/68 44/11/68 43/7/68
f 38/10/69 45/13/69 44/11/69
f 39/12/70 46/19/70 45/13/70
f 40/3/71 41/2/71 48/14/71
f 41/2/72 42/5/72 49/16/72
f 42/5/73 43/7/73 50/17/73
f 44/11/74 51/18/74 50/17/74
f 45/13/75 52/20/75 51/18/75
f 46/19/76 53/26/76 52/20/76
f 47/15/77 48/14/77 55/21/77
f 48/14/78 49/16/78 56/23/78
f 49/16/79 50/17/79 57/24/79
f 51/18/80 58/25/80 57/24/80
f 52/20/81 59/27/81 58/25/81
f 53/26/82 60/33/82 59/27/82
f 54/22/83 55/21/83 62/28/83
f 55/21/84 56/23/84 63/30/84
f 56/23/85 57/24/85 64/31/85
f 58/25/22 65/32/22 64/31/22
f 59/27/86 66/34/86 65/32/86
f 60/33/87 67/63/87 66/34/87
f 62/28/88 69/37/88 68/35/88
f 62/28/89 63/30/89 70/36/89
f 63/30/90 64/31/90 71/38/90
f 64/31/91 65/32/91 72/39/91
f 66/34/92 73/41/92 72/39/92
f 66/34/93 67/63/93 74/40/93
f 69/37/94 76/43/94 75/42/94
f 70/36/95 77/44/95 76/43/95
f 71/38/96 78/46/96 77/44/96
f 71/38/97 72/39/97 79/45/97
f 72/39/98 73/41/98 80/47/98
f 73/41/99 74/40/99 81/48/99
f 1/49/100 12/51/100 33/1/100
f 12/51/101 13/52/101 34/4/101
f 13/52/102 14/53/102 35/6/102
f 14/53/103 15/55/103 36/9/103
f 16/54/104 37/8/104 36/9/104
f 17/56/105 38/10/105 37/8/105
f 18/57/6 39/12/6 38/10/6
f 2/58/45 19/59/45 39/12/45
f 19/59/106 20/60/106 46/19/106
f 20/60/107 21/61/107 53/26/107
f 21/61/108 22/62/108 60/33/108
f 22/62/109 23/81/109 67/63/109
f 67/63/110 23/81/110 24/64/110
f 74/40/111 24/64/111 25/65/111
f 81/48/112 25/65/112 4/66/112
f 80/47/113 81/48/113 26/67/113
f 79/45/114 80/47/114 27/68/114
f 78/46/115 79/45/115 28/69/115
f 78/46/116 29/70/116 30/71/116
f 77/44/117 30/71/117 31/72/117
f 76/43/57 31/72/57 32/73/57
f 75/42/118 32/73/118 3/74/118
f 68/35/119 75/42/119 5/75/119
f 61/29/120 68/35/120 6/76/120
f 8/78/121 54/22/121 61/29/121
f 9/79/122 47/15/122 54/22/122
f 10/80/123 40/3/123 47/15/123
f 11/50/124 33/1/124 40/3/124
